<svg id="Layer_1" data-name="Layer 1" xmlns="http://www.w3.org/2000/svg" viewBox="0 0 3349.55 1238.57"><defs><style>.cls-1{fill:none;stroke:#62a795;stroke-miterlimit:10;stroke-width:7px;}</style></defs><path class="cls-1" d="M-766.72,1330.15c27.37-8.65,35.81,18,63.18,9.39s18.92-35.35,46.29-44,35.81,18,63.18,9.39,18.93-35.36,46.29-44,35.82,18,63.18,9.38,18.93-35.35,46.29-44,35.81,18,63.18,9.38,18.92-35.35,46.29-44,35.81,18,63.18,9.38,18.92-35.35,46.29-44,35.81,18,63.17,9.38,18.93-35.35,46.3-44,35.81,18,63.17,9.39,18.93-35.35,46.3-44,35.8,18,63.17,9.39,18.93-35.35,46.29-44,35.81,18,63.18,9.39,18.93-35.35,46.3-44,35.81,18,63.17,9.39,18.93-35.35,46.3-44,35.81,18,63.17,9.39,18.93-35.36,46.3-44,35.81,18,63.18,9.38,18.92-35.35,46.29-44,35.81,18,63.18,9.38,18.92-35.35,46.29-44,35.82,18,63.18,9.39,18.93-35.35,46.3-44,35.81,18,63.17,9.39,18.93-35.35,46.3-44,35.81,18,63.18,9.38,18.93-35.35,46.3-44,35.81,18,63.18,9.38,18.93-35.35,46.3-44,35.81,18,63.18,9.39,18.92-35.36,46.29-44,35.81,18,63.18,9.38,18.93-35.35,46.3-44,35.81,18,63.18,9.38,18.93-35.35,46.3-44,35.81,18,63.18,9.39,18.92-35.36,46.29-44,35.82,18,63.19,9.38,18.92-35.35,46.29-44,35.81,18,63.18,9.39,18.93-35.35,46.3-44,35.81,18,63.18,9.39,18.93-35.36,46.3-44,35.81,18,63.17,9.38,18.93-35.35,46.3-44,35.81,18,63.18,9.38,18.93-35.35,46.3-44,35.81,18,63.18,9.38,18.93-35.35,46.3-44,35.82,18,63.19,9.38,18.92-35.35,46.29-44,35.82,18,63.19,9.38,18.93-35.35,46.3-44,35.81,18,63.18,9.39,18.93-35.36,46.31-44,35.82,18,63.19,9.38" transform="translate(767.78 -286.21)"/><path class="cls-1" d="M-766.72,1390.15c27.37-8.65,35.81,18,63.18,9.39s18.92-35.35,46.29-44,35.81,18,63.18,9.39,18.93-35.36,46.29-44,35.82,18,63.18,9.38,18.93-35.35,46.29-44,35.81,18,63.18,9.38,18.92-35.35,46.29-44,35.81,18,63.18,9.38,18.92-35.35,46.29-44,35.81,18,63.17,9.38,18.93-35.35,46.3-44,35.81,18,63.17,9.39,18.93-35.35,46.3-44,35.8,18,63.17,9.39,18.93-35.35,46.29-44,35.81,18,63.18,9.39,18.93-35.35,46.3-44,35.81,18,63.17,9.39,18.93-35.35,46.3-44,35.81,18,63.17,9.39,18.93-35.36,46.3-44,35.81,18,63.18,9.38,18.92-35.35,46.29-44,35.81,18,63.18,9.38,18.92-35.35,46.29-44,35.82,18,63.18,9.39,18.93-35.35,46.3-44,35.81,18,63.17,9.39,18.93-35.35,46.3-44,35.81,18,63.18,9.38,18.93-35.35,46.3-44,35.81,18,63.18,9.38,18.93-35.35,46.3-44,35.81,18,63.18,9.39,18.92-35.36,46.29-44,35.81,18,63.18,9.38,18.93-35.35,46.3-44,35.81,18,63.18,9.38,18.93-35.35,46.3-44,35.81,18,63.18,9.39,18.92-35.36,46.29-44,35.82,18,63.19,9.38,18.92-35.35,46.29-44,35.81,18,63.18,9.39,18.93-35.35,46.3-44,35.81,18,63.18,9.39,18.93-35.36,46.3-44,35.81,18,63.17,9.38,18.93-35.35,46.3-44,35.81,18,63.18,9.38,18.93-35.35,46.3-44,35.81,18,63.18,9.38,18.93-35.35,46.3-44,35.82,18,63.19,9.38,18.92-35.35,46.29-44,35.82,18,63.19,9.38,18.93-35.35,46.3-44,35.81,18,63.18,9.39,18.93-35.36,46.31-44,35.82,18,63.19,9.38" transform="translate(767.78 -286.21)"/><path class="cls-1" d="M-766.72,1450.15c27.37-8.65,35.81,18,63.18,9.39s18.92-35.35,46.29-44,35.81,18,63.18,9.39,18.93-35.36,46.29-44,35.82,18,63.18,9.38,18.93-35.35,46.29-44,35.81,18,63.18,9.38,18.92-35.35,46.29-44,35.81,18,63.18,9.38,18.92-35.35,46.29-44,35.81,18,63.17,9.38,18.93-35.35,46.3-44,35.81,18,63.17,9.39,18.93-35.35,46.3-44,35.8,18,63.17,9.39,18.93-35.35,46.29-44,35.81,18,63.18,9.39,18.93-35.35,46.3-44,35.81,18,63.17,9.39,18.93-35.35,46.3-44,35.81,18,63.17,9.39,18.93-35.36,46.3-44,35.81,18,63.18,9.38,18.92-35.35,46.29-44,35.81,18,63.18,9.38,18.92-35.35,46.29-44,35.82,18,63.18,9.39,18.93-35.35,46.3-44,35.81,18,63.17,9.39,18.93-35.35,46.3-44,35.81,18,63.18,9.38,18.93-35.35,46.3-44,35.81,18,63.18,9.38,18.93-35.35,46.3-44,35.81,18,63.18,9.39,18.92-35.36,46.29-44,35.81,18,63.18,9.38,18.93-35.35,46.3-44,35.81,18,63.18,9.38,18.93-35.35,46.3-44,35.81,18,63.18,9.39,18.92-35.36,46.29-44,35.82,18,63.19,9.38,18.92-35.35,46.29-44,35.81,18,63.18,9.39,18.93-35.35,46.3-44,35.81,18,63.18,9.39,18.93-35.36,46.3-44,35.81,18,63.17,9.38,18.93-35.35,46.3-44,35.81,18,63.18,9.38,18.93-35.35,46.3-44,35.81,18,63.18,9.38,18.93-35.35,46.3-44,35.82,18,63.19,9.38,18.92-35.35,46.29-44,35.82,18,63.19,9.38,18.93-35.35,46.3-44,35.81,18,63.18,9.39,18.93-35.36,46.31-44,35.82,18,63.19,9.38" transform="translate(767.78 -286.21)"/><path class="cls-1" d="M-766.72,1510.15c27.37-8.65,35.81,18,63.18,9.39s18.92-35.35,46.29-44,35.81,18,63.18,9.39,18.93-35.36,46.29-44,35.82,18,63.18,9.38,18.93-35.35,46.29-44,35.81,18,63.18,9.38,18.92-35.35,46.29-44,35.81,18,63.18,9.38,18.92-35.35,46.29-44,35.81,18,63.17,9.38,18.93-35.35,46.3-44,35.81,18,63.17,9.39,18.93-35.35,46.3-44,35.8,18,63.17,9.39,18.93-35.35,46.29-44,35.81,18,63.18,9.39,18.93-35.35,46.3-44,35.81,18,63.17,9.39,18.93-35.35,46.3-44,35.81,18,63.17,9.39,18.93-35.36,46.3-44,35.81,18,63.18,9.38,18.92-35.35,46.29-44,35.81,18,63.18,9.38,18.92-35.35,46.29-44,35.82,18,63.18,9.39,18.93-35.35,46.3-44,35.81,18,63.17,9.39,18.93-35.35,46.3-44,35.81,18,63.18,9.38,18.93-35.35,46.3-44,35.81,18,63.18,9.38,18.93-35.35,46.3-44,35.81,18,63.18,9.39,18.92-35.36,46.29-44,35.81,18,63.18,9.38,18.93-35.35,46.3-44,35.81,18,63.18,9.38,18.93-35.35,46.3-44,35.81,18,63.18,9.39,18.92-35.36,46.29-44,35.82,18,63.19,9.38,18.92-35.35,46.29-44,35.81,18,63.18,9.39,18.93-35.35,46.3-44,35.81,18,63.18,9.39,18.93-35.36,46.3-44,35.81,18,63.17,9.38,18.93-35.35,46.3-44,35.81,18,63.18,9.38,18.93-35.35,46.3-44,35.81,18,63.18,9.38,18.93-35.35,46.3-44,35.82,18,63.19,9.38,18.92-35.35,46.29-44,35.82,18,63.19,9.38,18.93-35.35,46.3-44,35.81,18,63.18,9.39,18.93-35.36,46.31-44,35.82,18,63.19,9.38" transform="translate(767.78 -286.21)"/></svg>