<svg id="Layer_1" data-name="Layer 1" xmlns="http://www.w3.org/2000/svg" viewBox="0 0 1958.64 2361.04"><defs><style>.cls-1{fill:none;}.cls-2{fill:#62a795;}</style></defs><g id="Group_2" data-name="Group 2"><g id="Path_3" data-name="Path 3"><path class="cls-1" d="M1283.83-731.5a9.09,9.09,0,0,1-6.3,3.57,33,33,0,0,1-7.82-.2,33.07,33.07,0,0,0-7.89-.2,9.65,9.65,0,0,0-8.54,10.65,1.87,1.87,0,0,0,0,.25,33.18,33.18,0,0,0,2.18,7.76,34,34,0,0,1,2.21,7.84,10.26,10.26,0,0,1-8.76,11.52,34.48,34.48,0,0,1-8.31-.05,34.55,34.55,0,0,0-8.38,0,10.92,10.92,0,0,0-9.31,11.94,35.23,35.23,0,0,0,2.14,8.32,35.76,35.76,0,0,1,2.15,8.4,11.63,11.63,0,0,1-9.6,12.64,36.4,36.4,0,0,1-8.85.15,36.63,36.63,0,0,0-8.94.14,12.43,12.43,0,0,0-10.23,13.13,37.25,37.25,0,0,0,2.06,9,37.83,37.83,0,0,1,2.09,9,13.3,13.3,0,0,1-10.59,13.93,38,38,0,0,1-9.47.38,38.74,38.74,0,0,0-9.56.37,13.65,13.65,0,0,0-8.26,5.14,13.84,13.84,0,0,0-3,9.37,39.91,39.91,0,0,0,2,9.68,40.29,40.29,0,0,1,2,9.78,15.32,15.32,0,0,1-11.73,15.43,40.35,40.35,0,0,1-10.17.65,41.11,41.11,0,0,0-10.27.66,15.6,15.6,0,0,0-9,5.81,16,16,0,0,0-3.54,10.3,43.07,43.07,0,0,0,1.84,10.5,43.74,43.74,0,0,1,1.86,10.63,17.78,17.78,0,0,1-13.06,17.19,43,43,0,0,1-11,1,44.33,44.33,0,0,0-11.08,1,18,18,0,0,0-9.9,6.61,18.5,18.5,0,0,0-4.13,11.39,46.9,46.9,0,0,0,1.67,11.48,47.4,47.4,0,0,1,1.68,11.61,20.87,20.87,0,0,1-14.63,19.26c-3.8,1.14-7.84,1.27-11.9,1.41s-8.14.27-12,1.42a21,21,0,0,0-10.94,7.57,21.66,21.66,0,0,0-4.83,12.67c-.23,4.21.6,8.4,1.43,12.6s1.67,8.46,1.45,12.77a23.28,23.28,0,0,1-5,13.31,23.06,23.06,0,0,1-11.55,8.42c-4.17,1.38-8.56,1.65-13,1.93s-8.87.55-13.13,1.94a24.78,24.78,0,0,0-12.15,8.72,25.76,25.76,0,0,0-5.71,14.2c-.39,4.68.36,9.3,1.13,13.94s1.53,9.34,1.14,14.14a27.8,27.8,0,0,1-5.88,15,27.44,27.44,0,0,1-12.9,9.75c-4.6,1.66-9.41,2.11-14.24,2.57s-9.71.91-14.42,2.6a29.56,29.56,0,0,0-13.62,10.12,31,31,0,0,0-6.78,16.05c-.6,5.25.06,10.38.72,15.54s1.33,10.4.73,15.78a33.62,33.62,0,0,1-7,17,33.1,33.1,0,0,1-14.54,11.39c-5.12,2-10.43,2.71-15.75,3.39s-10.72,1.37-16,3.44A36,36,0,0,0,825.28-176a38,38,0,0,0-8.11,18.3c-.87,5.93-.35,11.69.17,17.49s1.06,11.66.17,17.76a41.24,41.24,0,0,1-8.42,19.43,40.63,40.63,0,0,1-16.55,13.44c-5.75,2.5-11.65,3.47-17.58,4.44s-11.94,2-17.85,4.52-11.83,6.71-17.6,14.06a47.08,47.08,0,0,0-9.8,21.1c-1.23,6.77-.9,13.31-.58,19.87s.67,13.25-.58,20.22S724.42,9,718.31,17.09s-12.55,13-19,16S686.1,37.59,679.43,39,666,41.72,659.28,44.88s-13.56,8.19-20.35,16.86-10.3,16.86-12,24.65-1.66,15.33-1.6,22.87.11,15.21-1.62,23.31-5.33,16.8-12.6,26.42-14.76,15.55-22.23,19.41-15.06,5.77-22.65,7.66-15.3,3.82-23,7.8S527.44,204,519.31,214.37s-12.54,20.09-14.87,29.22-2.69,17.93-3,26.72-.68,17.73-3.08,27.27-6.95,19.9-15.72,31.52S465,348.07,456.25,353s-17.5,7.54-26.26,10.15-17.69,5.28-26.78,10.36-18.6,12.75-28.51,25.4c-10.05,12.82-15.55,24.36-18.77,35.27s-4.13,21.35-5,31.77-1.82,21.05-5.15,32.5-9.19,24-20,38.34c-11,14.51-21.52,23.6-31.9,30s-20.7,10-31,13.64-20.82,7.34-31.7,14-22.41,16.35-34.76,32.12c-12.54,16-19.72,30.2-24.19,43.52s-6.24,26-8,38.6-3.54,25.55-8.2,39.61-12.38,29.7-26,47.77c-13.87,18.35-26.9,30.11-39.55,38.53s-25.08,13.59-37.49,18.7-25.1,10.35-38.43,19.17-27.72,21.55-43.54,41.73c-16.09,20.52-25.69,38.5-32,55.23-6.4,16.92-9.43,32.52-12.49,48.25s-6.2,31.89-12.87,49.67c-6.73,18-17.12,37.82-34.89,61.35-18.09,23.94-34.69,39.63-50.58,51.14-16.06,11.63-31.32,19-46.71,26.33s-31.18,15-48.05,27.1c-17.06,12.27-35.45,29.34-56.42,56.1-21.37,27.27-34.68,50.85-43.91,72.64-9.34,22.06-14.46,42.18-19.64,62.51-5.23,20.55-10.51,41.31-20.31,64.66-9.93,23.66-24.54,50.09-48.63,82" transform="translate(673.04 784.13)"/><path class="cls-2" d="M1258-729.36a13.79,13.79,0,0,1,2.64-.66,21,21,0,0,1,2.76-.19c.93,0,1.87.05,2.81.12s1.86.17,2.76.26,1.73.18,2.57.25,1.68.11,2.48.11a16.15,16.15,0,0,0,2.34-.15,10,10,0,0,0,2.16-.54,8.83,8.83,0,0,0,1-.45,7.65,7.65,0,0,0,.93-.59,6.61,6.61,0,0,0,.86-.74,7.88,7.88,0,0,0,.8-.91l3.53,2.71a10.17,10.17,0,0,1-.95,1.09,8.51,8.51,0,0,1-1,.88,8.69,8.69,0,0,1-1.11.71,9.7,9.7,0,0,1-1.18.54,12.92,12.92,0,0,1-2.57.66,18.87,18.87,0,0,1-2.73.19c-.92,0-1.85,0-2.78-.11s-1.85-.16-2.76-.25-1.73-.18-2.58-.25-1.69-.11-2.5-.11a16.79,16.79,0,0,0-2.38.16,10.67,10.67,0,0,0-2.21.55,7.77,7.77,0,0,0-1,.46,9.6,9.6,0,0,0-1,.6,9.07,9.07,0,0,0-.91.77,8.61,8.61,0,0,0-.84.94,8.47,8.47,0,0,0-1.59,3.23,10,10,0,0,0-.18,3.42,20.07,20.07,0,0,0,.79,3.58c.37,1.21.83,2.45,1.29,3.71s1,2.66,1.4,4a22.77,22.77,0,0,1,.9,4.18,12.62,12.62,0,0,1-.2,4.2,10.83,10.83,0,0,1-1.92,4.08,12.06,12.06,0,0,1-1,1.19,11.22,11.22,0,0,1-1.12,1,11.17,11.17,0,0,1-1.2.78,11.41,11.41,0,0,1-1.27.61,13.48,13.48,0,0,1-2.75.76,19.65,19.65,0,0,1-2.89.28c-1,0-2,0-3-.06s-2-.14-2.93-.22-1.84-.15-2.74-.2-1.78-.08-2.65-.07a17.37,17.37,0,0,0-2.53.23,11.21,11.21,0,0,0-2.37.64,9.84,9.84,0,0,0-1.09.52,8.34,8.34,0,0,0-1,.67,9.49,9.49,0,0,0-1,.84,10.34,10.34,0,0,0-.92,1,9.66,9.66,0,0,0-1.77,3.52,10.9,10.9,0,0,0-.27,3.69,19.87,19.87,0,0,0,.75,3.84c.36,1.3.82,2.63,1.28,4s1,2.85,1.39,4.32a24.88,24.88,0,0,1,.86,4.49,13.9,13.9,0,0,1-.32,4.54,12.3,12.3,0,0,1-2.14,4.45,14.59,14.59,0,0,1-1.13,1.31,11.1,11.1,0,0,1-1.22,1.08,11.78,11.78,0,0,1-1.29.88,14.37,14.37,0,0,1-1.36.68,14.53,14.53,0,0,1-3,.89,21.32,21.32,0,0,1-3.1.36c-1,.05-2.1.05-3.15,0s-2.09-.1-3.11-.17-2-.12-2.92-.15-1.9-.05-2.82,0a18.42,18.42,0,0,0-2.71.3,12.55,12.55,0,0,0-2.54.75,10.6,10.6,0,0,0-1.17.58,10.05,10.05,0,0,0-1.13.75,10.29,10.29,0,0,0-1.07.94,12.37,12.37,0,0,0-1,1.13,10.84,10.84,0,0,0-2,3.86,11.94,11.94,0,0,0-.39,4,21.86,21.86,0,0,0,.7,4.14c.36,1.4.81,2.82,1.27,4.27s1,3.06,1.37,4.65a25.74,25.74,0,0,1,.8,4.84,15.21,15.21,0,0,1-.45,4.92,14.2,14.2,0,0,1-2.4,4.88,16.23,16.23,0,0,1-1.24,1.45,13.47,13.47,0,0,1-1.33,1.2,13.19,13.19,0,0,1-1.41,1,12.89,12.89,0,0,1-1.47.77,15.68,15.68,0,0,1-3.17,1,23.08,23.08,0,0,1-3.32.47c-1.12.08-2.25.1-3.37.08s-2.23,0-3.32-.1-2.09-.08-3.11-.1-2,0-3,.06a21.09,21.09,0,0,0-2.9.39,14.11,14.11,0,0,0-2.74.88,11.81,11.81,0,0,0-1.27.66,12.17,12.17,0,0,0-1.23.84,14,14,0,0,0-1.16,1q-.57.59-1.11,1.26a12.93,12.93,0,0,0-2.23,4.23,13.69,13.69,0,0,0-.52,4.35,24.19,24.19,0,0,0,.64,4.48c.35,1.51.8,3.05,1.25,4.61s1,3.3,1.34,5a28.12,28.12,0,0,1,.73,5.25,17.28,17.28,0,0,1-.62,5.36,16.05,16.05,0,0,1-2.71,5.36,18.46,18.46,0,0,1-1.36,1.62,16.54,16.54,0,0,1-1.46,1.34,15.46,15.46,0,0,1-1.53,1.1,16.81,16.81,0,0,1-1.6.88,17.84,17.84,0,0,1-3.44,1.22,25.08,25.08,0,0,1-3.57.59c-1.2.12-2.41.17-3.61.18s-2.4,0-3.56,0-2.24,0-3.34,0-2.19.05-3.25.15a21.36,21.36,0,0,0-3.12.5,15.15,15.15,0,0,0-3,1,14.46,14.46,0,0,0-1.39.75,13,13,0,0,0-1.33.95,15.34,15.34,0,0,0-1.29,1.16,17.18,17.18,0,0,0-1.22,1.41,14.74,14.74,0,0,0-2.51,4.67,15.2,15.2,0,0,0-.69,4.76,27.24,27.24,0,0,0,.56,4.86c.33,1.65.77,3.31,1.21,5s.94,3.58,1.3,5.45a30.25,30.25,0,0,1,.63,5.71,19.36,19.36,0,0,1-.81,5.88,19,19,0,0,1-3.07,5.93,18.24,18.24,0,0,1-1.52,1.8,17.3,17.3,0,0,1-1.6,1.51,17.38,17.38,0,0,1-1.68,1.25,18.33,18.33,0,0,1-1.75,1,20.14,20.14,0,0,1-3.73,1.42,27.12,27.12,0,0,1-3.86.75c-1.3.16-2.61.24-3.9.29s-2.58.06-3.84.07-2.41,0-3.59.06-2.36.11-3.51.25a25.49,25.49,0,0,0-3.38.63,17.41,17.41,0,0,0-3.22,1.21,15.45,15.45,0,0,0-1.52.86,14.55,14.55,0,0,0-1.47,1.08,15.62,15.62,0,0,0-1.42,1.31,17.63,17.63,0,0,0-1.36,1.57,17.28,17.28,0,0,0-2.85,5.19,17,17,0,0,0-.88,5.23,28.32,28.32,0,0,0,.45,5.32c.31,1.8.73,3.61,1.15,5.45s.91,3.91,1.24,5.94a33.28,33.28,0,0,1,.51,6.26,22.05,22.05,0,0,1-1.06,6.47,22.53,22.53,0,0,1-3.49,6.61,24.9,24.9,0,0,1-1.69,2,23.46,23.46,0,0,1-1.78,1.7,21.83,21.83,0,0,1-1.86,1.42,21.3,21.3,0,0,1-1.92,1.16,22.51,22.51,0,0,1-4.07,1.67,31.32,31.32,0,0,1-4.2.94c-1.41.21-2.83.34-4.23.43s-2.79.14-4.15.19-2.61.09-3.89.17-2.55.19-3.8.38a25.36,25.36,0,0,0-3.68.79,20,20,0,0,0-3.53,1.42,19.38,19.38,0,0,0-1.67,1,19.74,19.74,0,0,0-1.63,1.22c-.53.45-1.06.95-1.58,1.49a22.6,22.6,0,0,0-1.52,1.77,20.62,20.62,0,0,0-3.26,5.8,19.79,19.79,0,0,0-1.12,5.79,31.28,31.28,0,0,0,.32,5.86c.27,2,.67,4,1.07,6s.86,4.28,1.16,6.51a38.35,38.35,0,0,1,.35,6.89,26,26,0,0,1-1.36,7.19,27,27,0,0,1-4,7.41,29.48,29.48,0,0,1-1.91,2.28c-.65.71-1.31,1.35-2,1.95a25.3,25.3,0,0,1-2.07,1.62,20.87,20.87,0,0,1-2.12,1.34,25.61,25.61,0,0,1-4.48,2,33.18,33.18,0,0,1-4.59,1.16c-1.54.28-3.08.47-4.61.62s-3,.24-4.52.33-2.84.18-4.23.31-2.78.29-4.15.54a27.75,27.75,0,0,0-4,1,22.08,22.08,0,0,0-3.89,1.68,20.43,20.43,0,0,0-1.86,1.16,20.65,20.65,0,0,0-1.81,1.41,23.19,23.19,0,0,0-1.77,1.69c-.58.62-1.16,1.28-1.72,2a24.89,24.89,0,0,0-3.74,6.53,22.83,22.83,0,0,0-1.43,6.46,36.14,36.14,0,0,0,.15,6.49c.23,2.17.59,4.37,1,6.6s.79,4.72,1,7.2a42.18,42.18,0,0,1,.14,7.64,30.15,30.15,0,0,1-1.73,8,32.31,32.31,0,0,1-4.62,8.37c-.7.94-1.42,1.81-2.15,2.61s-1.48,1.54-2.24,2.23-1.53,1.3-2.31,1.88-1.57,1.09-2.36,1.56a30.7,30.7,0,0,1-5,2.35,38,38,0,0,1-5.06,1.44c-1.69.37-3.38.63-5,.84s-3.33.37-5,.52-3.11.3-4.64.49-3.06.42-4.55.73a34.41,34.41,0,0,0-4.44,1.24,25.51,25.51,0,0,0-4.32,2,23.6,23.6,0,0,0-2.07,1.35c-.69.5-1.37,1-2,1.63s-1.34,1.25-2,1.95-1.31,1.47-2,2.3a30,30,0,0,0-4.34,7.41,27.63,27.63,0,0,0-1.8,7.27,39.79,39.79,0,0,0-.08,7.24c.17,2.42.49,4.87.81,7.35s.69,5.25.87,8a48.11,48.11,0,0,1-.13,8.55,35.47,35.47,0,0,1-2.19,9,39.82,39.82,0,0,1-5.38,9.54c-.81,1.08-1.63,2.07-2.47,3s-1.68,1.78-2.54,2.58-1.72,1.52-2.6,2.18-1.77,1.28-2.66,1.84a35.65,35.65,0,0,1-5.54,2.81,43.64,43.64,0,0,1-5.62,1.81c-1.87.47-3.74.82-5.58,1.12s-3.68.53-5.47.76-3.43.45-5.12.71-3.38.59-5,1a39.16,39.16,0,0,0-4.94,1.55,31.07,31.07,0,0,0-4.83,2.41,27.65,27.65,0,0,0-2.33,1.6c-.78.58-1.55,1.21-2.31,1.9s-1.52,1.45-2.28,2.27-1.5,1.7-2.25,2.65a37.4,37.4,0,0,0-5.07,8.5,32.93,32.93,0,0,0-2.28,8.24,46.52,46.52,0,0,0-.37,8.16c.09,2.73.34,5.46.6,8.25s.54,5.9.64,9a56.78,56.78,0,0,1-.48,9.65,43.31,43.31,0,0,1-2.79,10.3,49,49,0,0,1-6.33,11q-1.41,1.88-2.85,3.49c-1,1.08-1.93,2.08-2.91,3s-2,1.78-3,2.57-2,1.52-3,2.18a43.63,43.63,0,0,1-6.25,3.4,51.68,51.68,0,0,1-6.29,2.26c-2.09.6-4.18,1.08-6.23,1.48s-4.1.75-6.09,1.08-3.82.64-5.71,1-3.76.78-5.62,1.31a43.49,43.49,0,0,0-5.54,2,37.14,37.14,0,0,0-5.46,2.92c-.89.58-1.77,1.21-2.66,1.89s-1.76,1.44-2.64,2.26-1.75,1.7-2.62,2.66-1.75,2-2.61,3.1a46.83,46.83,0,0,0-6,9.84,40.23,40.23,0,0,0-2.88,9.46,54,54,0,0,0-.77,9.28c0,3.1.14,6.2.31,9.36s.34,6.69.31,10.22a66.25,66.25,0,0,1-1,11A53.57,53.57,0,0,1,729.13,7a62,62,0,0,1-7.54,12.8Q720,22,718.27,23.91c-1.12,1.28-2.24,2.46-3.38,3.56s-2.28,2.12-3.42,3.07-2.31,1.81-3.46,2.62a52.37,52.37,0,0,1-7.12,4.14,60.86,60.86,0,0,1-7.13,2.85c-2.36.78-4.71,1.41-7,2s-4.6,1-6.84,1.49-4.3.89-6.43,1.39-4.24,1.07-6.34,1.75a51.5,51.5,0,0,0-6.29,2.47,44,44,0,0,0-6.24,3.57c-1,.7-2,1.46-3.06,2.29s-2,1.72-3.06,2.69-2.05,2-3.07,3.16-2,2.36-3.07,3.67a60.69,60.69,0,0,0-7.19,11.55,50.91,50.91,0,0,0-3.68,11,64.7,64.7,0,0,0-1.3,10.7c-.17,3.56-.14,7.12-.1,10.75s.07,7.68-.14,11.75A79,79,0,0,1,628.33,133a66.87,66.87,0,0,1-4.56,13.83A80.81,80.81,0,0,1,614.69,162q-2,2.6-3.94,4.88t-4,4.27c-1.33,1.32-2.67,2.55-4,3.7s-2.68,2.2-4,3.19a66.56,66.56,0,0,1-8.22,5.12,72.42,72.42,0,0,1-8.17,3.62c-2.71,1-5.39,1.86-8,2.61s-5.24,1.4-7.8,2-4.89,1.23-7.32,1.91-4.84,1.43-7.25,2.32a62,62,0,0,0-7.22,3.15,57.16,57.16,0,0,0-7.24,4.44q-1.79,1.29-3.58,2.8c-1.2,1-2.4,2.09-3.6,3.27s-2.42,2.45-3.63,3.81-2.44,2.83-3.66,4.4a79.56,79.56,0,0,0-8.75,13.77,64.44,64.44,0,0,0-4.74,12.95,80.58,80.58,0,0,0-2,12.52c-.38,4.16-.53,8.31-.69,12.53-.15,4.39-.32,9-.77,13.7a99.08,99.08,0,0,1-2.47,14.92,87,87,0,0,1-5.91,16.38,107,107,0,0,1-11.14,18.14q-2.37,3.13-4.74,5.91c-1.59,1.85-3.17,3.58-4.76,5.2s-3.17,3.14-4.76,4.55-3.17,2.72-4.75,3.94a83.85,83.85,0,0,1-9.66,6.43,91.66,91.66,0,0,1-9.51,4.68c-3.14,1.33-6.25,2.45-9.3,3.46s-6.07,1.92-9,2.81-5.66,1.7-8.46,2.62-5.62,1.94-8.42,3.1a80.47,80.47,0,0,0-8.44,4.09,72.84,72.84,0,0,0-8.53,5.6q-2.12,1.6-4.26,3.48c-1.43,1.25-2.86,2.59-4.31,4s-2.91,3-4.37,4.68-3,3.46-4.45,5.38a106.59,106.59,0,0,0-10.83,16.7,85.88,85.88,0,0,0-6.2,15.55,103.45,103.45,0,0,0-3.07,14.91c-.68,4.93-1.1,9.85-1.52,14.86-.45,5.21-.9,10.62-1.7,16.27a126.6,126.6,0,0,1-3.73,17.83A115.63,115.63,0,0,1,344,518.29,145.29,145.29,0,0,1,330,540.49q-2.92,3.87-5.82,7.31t-5.8,6.47c-1.94,2-3.86,3.91-5.78,5.68s-3.83,3.43-5.73,5a110.25,110.25,0,0,1-11.55,8.22,113.94,113.94,0,0,1-11.29,6.14c-3.72,1.77-7.38,3.3-11,4.69s-7.14,2.64-10.62,3.88-6.66,2.36-10,3.63-6.64,2.64-10,4.2a102.71,102.71,0,0,0-10.05,5.38,100.63,100.63,0,0,0-10.26,7.21q-2.57,2.06-5.17,4.42c-1.74,1.59-3.5,3.28-5.27,5.11s-3.57,3.77-5.39,5.87-3.66,4.33-5.52,6.72a148,148,0,0,0-13.7,20.71,117.37,117.37,0,0,0-8.25,19.07,139.19,139.19,0,0,0-4.58,18.16c-1.12,6-1.93,11.95-2.76,18-.86,6.32-1.76,12.88-3.06,19.76a170.48,170.48,0,0,1-5.56,21.8,159.39,159.39,0,0,1-10.42,24.45,205.67,205.67,0,0,1-17.82,27.83q-3.69,4.9-7.33,9.27t-7.26,8.24q-3.61,3.88-7.17,7.3t-7.08,6.44a152.81,152.81,0,0,1-14.16,10.78A156.13,156.13,0,0,1,78,850.46c-4.51,2.41-8.93,4.51-13.27,6.44s-8.61,3.71-12.79,5.45-8,3.33-12,5.1-8,3.67-12.06,5.81A136.28,136.28,0,0,0,2.92,890c-2.13,1.8-4.28,3.71-6.45,5.77s-4.38,4.26-6.62,6.62S-14.66,907.3-17,910s-4.66,5.57-7,8.63A216,216,0,0,0-41.83,945,167.92,167.92,0,0,0-53.08,969.1a192.88,192.88,0,0,0-6.84,22.72c-1.79,7.48-3.21,14.9-4.66,22.46-1.52,7.88-3.09,16.06-5.18,24.67a238,238,0,0,1-8.31,27.42,232,232,0,0,1-14.35,31.14,306.08,306.08,0,0,1-23.52,36q-4.82,6.39-9.53,12.11t-9.36,10.85q-4.65,5.13-9.2,9.67t-9,8.59a224.69,224.69,0,0,1-17.89,14.59c-5.86,4.28-11.59,8-17.2,11.38s-11.13,6.35-16.51,9.11-10.7,5.33-15.89,7.83c-5,2.42-10,4.81-15,7.36s-10,5.24-15.06,8.24-10.22,6.32-15.46,10.11a201.66,201.66,0,0,0-16.15,13q-4.1,3.64-8.31,7.79t-8.61,8.88q-4.38,4.74-8.93,10.1t-9.33,11.48a330.6,330.6,0,0,0-24,34.89A254.06,254.06,0,0,0-357.22,1361a284.16,284.16,0,0,0-10.38,29.47c-2.87,9.68-5.28,19.26-7.74,29-2.57,10.19-5.24,20.78-8.57,32a358.75,358.75,0,0,1-12.69,35.83,357.26,357.26,0,0,1-20.5,41.23,480.35,480.35,0,0,1-32.3,48.44l-12.4-11.67A405.32,405.32,0,0,0-434.6,1525a294.07,294.07,0,0,0,17.39-34.62,306.72,306.72,0,0,0,11.1-31.17c3-10,5.54-19.82,8.08-29.71,2.63-10.22,5.33-20.72,8.66-31.7A335.72,335.72,0,0,1-377,1363.49a312.58,312.58,0,0,1,19.22-37.7A390.87,390.87,0,0,1-328.85,1284c3.79-4.82,7.51-9.34,11.16-13.61s7.22-8.24,10.73-12,6.94-7.24,10.32-10.52,6.68-6.35,9.94-9.22a245.05,245.05,0,0,1,19.22-15.37c6.18-4.44,12.16-8.29,18-11.72s11.4-6.43,16.86-9.19,10.75-5.29,15.92-7.75c4.95-2.37,9.85-4.7,14.73-7.16s9.71-5,14.57-7.89,9.73-6,14.66-9.53a181.49,181.49,0,0,0,15-12q3.74-3.35,7.54-7.12t7.67-8c2.58-2.84,5.19-5.84,7.84-9s5.31-6.54,8-10.11a256.23,256.23,0,0,0,19.8-29.93,188.82,188.82,0,0,0,12.18-26.12,206,206,0,0,0,7.26-23.84c1.88-7.7,3.37-15.27,4.87-22.91,1.56-7.9,3.16-16,5.25-24.49A227.62,227.62,0,0,1-69.23,970a207.87,207.87,0,0,1,13.63-28.8A255.57,255.57,0,0,1-34.14,909.6q4.29-5.45,8.45-10.23t8.19-9c2.69-2.8,5.33-5.41,8-7.85s5.17-4.71,7.71-6.83a166.17,166.17,0,0,1,15.08-11.28A164,164,0,0,1,27.51,856c4.62-2.44,9.12-4.55,13.51-6.49s8.65-3.68,12.82-5.39c4-1.63,7.95-3.25,11.88-5s7.82-3.54,11.72-5.58a133.42,133.42,0,0,0,11.72-6.9A123.84,123.84,0,0,0,101,817.76q2.94-2.49,5.91-5.33c2-1.9,4-3.91,6-6.06s4-4.44,6.07-6.87,4.1-5,6.17-7.74a173.5,173.5,0,0,0,15-23.13A131.08,131.08,0,0,0,149,748.12a146.75,146.75,0,0,0,4.84-18.93c1.18-6.15,2-12.21,2.89-18.33.9-6.33,1.81-12.85,3.13-19.63a161.34,161.34,0,0,1,5.5-21.05,144.07,144.07,0,0,1,10-22.81,175.52,175.52,0,0,1,16.5-24.83q3.34-4.24,6.62-8t6.47-7q3.19-3.24,6.33-6.06c2.09-1.87,4.15-3.61,6.19-5.24a120.4,120.4,0,0,1,12.23-8.54,123.38,123.38,0,0,1,11.69-6.26c3.8-1.79,7.53-3.32,11.17-4.7s7.17-2.63,10.63-3.84,6.61-2.31,9.87-3.55,6.48-2.54,9.71-4a96.11,96.11,0,0,0,9.65-5.14,90.45,90.45,0,0,0,9.67-6.79c1.59-1.29,3.19-2.66,4.79-4.13s3.2-3,4.82-4.73,3.23-3.47,4.85-5.38,3.26-4,4.9-6.11a122.26,122.26,0,0,0,11.73-18.45,93.87,93.87,0,0,0,6.59-16.58A110.23,110.23,0,0,0,343,482.58c.71-5.05,1.15-10,1.6-15.09.47-5.22.94-10.59,1.75-16.17A121.49,121.49,0,0,1,350.07,434a104.27,104.27,0,0,1,7.51-18.58,126.83,126.83,0,0,1,13-20c1.79-2.27,3.57-4.39,5.34-6.38s3.51-3.83,5.25-5.55,3.47-3.31,5.18-4.8,3.42-2.85,5.11-4.12A89.63,89.63,0,0,1,401.65,368a93.52,93.52,0,0,1,9.82-4.76c3.21-1.34,6.36-2.47,9.45-3.48s6.09-1.9,9-2.77,5.62-1.66,8.38-2.56,5.51-1.87,8.24-3a76.44,76.44,0,0,0,8.14-3.91,69.22,69.22,0,0,0,8.08-5.32q2-1.51,4-3.27t4-3.78c1.33-1.34,2.65-2.78,4-4.33s2.66-3.18,4-4.94a89.92,89.92,0,0,0,9.39-15.07,71,71,0,0,0,5-13.73,84.9,84.9,0,0,0,2.15-12.95c.4-4.24.57-8.44.74-12.69.18-4.41.36-8.94.82-13.63a94.75,94.75,0,0,1,2.49-14.5,79.1,79.1,0,0,1,5.75-15.47,93.65,93.65,0,0,1,10.52-16.51c1.47-1.86,2.93-3.6,4.4-5.22s2.91-3.12,4.36-4.52,2.89-2.69,4.33-3.88,2.86-2.3,4.29-3.32a70.17,70.17,0,0,1,8.63-5.27,76.82,76.82,0,0,1,8.41-3.68c2.75-1,5.47-1.85,8.13-2.6s5.27-1.38,7.82-2,4.86-1.21,7.26-1.87,4.76-1.39,7.11-2.24a62.41,62.41,0,0,0,7-3,51.35,51.35,0,0,0,6.89-4.23q1.69-1.22,3.36-2.64t3.35-3.08c1.11-1.11,2.22-2.29,3.33-3.56s2.21-2.63,3.31-4.08a67.31,67.31,0,0,0,7.66-12.55,55.27,55.27,0,0,0,3.87-11.58,68.52,68.52,0,0,0,1.37-11c.19-3.63.17-7.23.15-10.88s-.05-7.67.17-11.68a76.46,76.46,0,0,1,1.62-12.39,61.31,61.31,0,0,1,4.46-13.12A71.54,71.54,0,0,1,635.51,59q1.83-2.34,3.68-4.35c1.22-1.35,2.45-2.59,3.68-3.75s2.46-2.22,3.68-3.2,2.45-1.88,3.68-2.71a55.47,55.47,0,0,1,7.44-4.25A61.43,61.43,0,0,1,665,37.81c2.41-.78,4.79-1.41,7.13-2s4.62-1,6.86-1.47,4.27-.87,6.37-1.36,4.18-1,6.23-1.69a48.07,48.07,0,0,0,6.1-2.38,41.11,41.11,0,0,0,6-3.42c1-.66,1.94-1.39,2.89-2.17s1.92-1.64,2.86-2.55,1.89-1.91,2.83-3,1.87-2.2,2.8-3.42a52.58,52.58,0,0,0,6.35-10.63,43.34,43.34,0,0,0,3-9.93,57.66,57.66,0,0,0,.82-9.55c0-3.15-.13-6.29-.28-9.46s-.33-6.68-.28-10.17a63.73,63.73,0,0,1,1-10.74,49.4,49.4,0,0,1,3.5-11.3,55.48,55.48,0,0,1,7.22-11.8c1-1.32,2.08-2.54,3.13-3.68s2.1-2.18,3.16-3.15,2.12-1.86,3.18-2.68,2.12-1.56,3.19-2.25a44.66,44.66,0,0,1,6.51-3.46A49.75,49.75,0,0,1,762-86.66c2.12-.61,4.23-1.08,6.31-1.49s4.11-.73,6.1-1,3.8-.63,5.66-1,3.71-.77,5.53-1.28A43.06,43.06,0,0,0,791-93.34a34.63,34.63,0,0,0,5.24-2.81c.85-.55,1.69-1.15,2.52-1.81s1.66-1.37,2.48-2.14,1.63-1.61,2.44-2.51,1.6-1.87,2.39-2.91a41.47,41.47,0,0,0,5.34-9.13,35.22,35.22,0,0,0,2.37-8.62,48.11,48.11,0,0,0,.41-8.37c-.09-2.77-.33-5.53-.58-8.33s-.52-5.89-.6-9a53.08,53.08,0,0,1,.51-9.43,40.34,40.34,0,0,1,2.76-9.85,44.66,44.66,0,0,1,6.1-10.18c.89-1.14,1.79-2.18,2.7-3.15s1.82-1.87,2.74-2.69,1.85-1.57,2.78-2.27,1.86-1.31,2.8-1.88a36.78,36.78,0,0,1,5.76-2.87,44.31,44.31,0,0,1,5.75-1.81c1.9-.47,3.79-.83,5.65-1.12s3.69-.52,5.48-.75,3.41-.43,5.09-.69,3.33-.56,5-1a36.14,36.14,0,0,0,4.81-1.5,28.8,28.8,0,0,0,4.65-2.32,25.88,25.88,0,0,0,2.22-1.53c.73-.55,1.46-1.16,2.18-1.82s1.42-1.37,2.12-2.15,1.39-1.61,2.07-2.5a33.54,33.54,0,0,0,4.55-7.93,29.14,29.14,0,0,0,1.86-7.58,40.79,40.79,0,0,0,.1-7.41c-.16-2.46-.48-4.93-.79-7.42s-.67-5.24-.84-8a46,46,0,0,1,.16-8.36,33.5,33.5,0,0,1,2.18-8.68,36.17,36.17,0,0,1,5.22-8.89c.77-1,1.56-1.89,2.35-2.72s1.59-1.61,2.4-2.32a30.54,30.54,0,0,1,2.46-1.93c.82-.59,1.65-1.12,2.48-1.61a31.67,31.67,0,0,1,5.15-2.38,40,40,0,0,1,5.17-1.46c1.71-.36,3.42-.62,5.11-.83s3.34-.36,5-.51,3.09-.28,4.61-.47,3-.4,4.49-.71a31.37,31.37,0,0,0,4.34-1.2,24.78,24.78,0,0,0,4.16-1.94,21.71,21.71,0,0,0,2-1.3,22.62,22.62,0,0,0,1.92-1.56c.64-.57,1.26-1.19,1.88-1.86s1.21-1.39,1.81-2.18a27.2,27.2,0,0,0,3.9-6.95,24.24,24.24,0,0,0,1.47-6.72,36.71,36.71,0,0,0-.13-6.63c-.23-2.21-.59-4.42-.95-6.66s-.77-4.72-1-7.17a40.62,40.62,0,0,1-.11-7.49,28.39,28.39,0,0,1,1.73-7.72,29.89,29.89,0,0,1,4.5-7.83c.68-.86,1.37-1.65,2.07-2.38a28.22,28.22,0,0,1,2.12-2,25.4,25.4,0,0,1,2.19-1.67,25.12,25.12,0,0,1,2.22-1.37,28,28,0,0,1,4.64-2,34.89,34.89,0,0,1,4.69-1.16c1.56-.28,3.12-.47,4.65-.61s3.05-.23,4.53-.32,2.83-.18,4.21-.3,2.75-.28,4.09-.52a27.61,27.61,0,0,0,3.94-1,21.06,21.06,0,0,0,3.76-1.63,18.71,18.71,0,0,0,1.78-1.11,19.32,19.32,0,0,0,1.72-1.36,21,21,0,0,0,1.66-1.62,23.74,23.74,0,0,0,1.6-1.91,22.46,22.46,0,0,0,3.38-6.15,20.82,20.82,0,0,0,1.16-6,32.31,32.31,0,0,0-.31-6c-.27-2-.67-4-1.07-6s-.84-4.27-1.13-6.49a36.15,36.15,0,0,1-.31-6.76,23.8,23.8,0,0,1,1.37-6.92,24.48,24.48,0,0,1,3.91-7,25.26,25.26,0,0,1,1.83-2.1,23.86,23.86,0,0,1,1.9-1.76,23.53,23.53,0,0,1,2-1.45,20.65,20.65,0,0,1,2-1.18,23.44,23.44,0,0,1,4.21-1.69,30.92,30.92,0,0,1,4.28-.94c1.43-.21,2.85-.34,4.26-.43s2.8-.13,4.16-.18,2.6-.08,3.87-.16,2.53-.18,3.76-.36a25.6,25.6,0,0,0,3.6-.77,17.88,17.88,0,0,0,3.42-1.38,14.85,14.85,0,0,0,1.61-1c.52-.36,1-.75,1.55-1.18s1-.91,1.49-1.43,1-1.08,1.42-1.69a19,19,0,0,0,2.95-5.48,18.44,18.44,0,0,0,.91-5.42,29.35,29.35,0,0,0-.46-5.43c-.3-1.82-.72-3.64-1.14-5.49s-.89-3.9-1.22-5.92a33,33,0,0,1-.48-6.14,21.16,21.16,0,0,1,1.08-6.25,20.84,20.84,0,0,1,3.42-6.23,23.14,23.14,0,0,1,1.64-1.86,20.3,20.3,0,0,1,1.71-1.55,18.8,18.8,0,0,1,1.77-1.28,19.44,19.44,0,0,1,1.82-1,21.15,21.15,0,0,1,3.85-1.44,28.3,28.3,0,0,1,3.93-.74c1.32-.16,2.64-.25,3.94-.29s2.58-.05,3.84-.06,2.4,0,3.58-.05,2.33-.11,3.46-.24a24.29,24.29,0,0,0,3.32-.61,16.47,16.47,0,0,0,3.13-1.18,14.3,14.3,0,0,0,1.46-.83,13.7,13.7,0,0,0,1.4-1,15.77,15.77,0,0,0,1.35-1.26,17.72,17.72,0,0,0,1.27-1.51,15.94,15.94,0,0,0,2.59-4.92,15.8,15.8,0,0,0,.71-4.92,28.12,28.12,0,0,0-.56-5c-.33-1.66-.77-3.34-1.21-5s-.92-3.57-1.28-5.42a29.47,29.47,0,0,1-.6-5.62,18.32,18.32,0,0,1,.84-5.68,17.66,17.66,0,0,1,3-5.6,20.35,20.35,0,0,1,1.47-1.67,18,18,0,0,1,1.55-1.38,15.5,15.5,0,0,1,1.61-1.12,16.88,16.88,0,0,1,1.67-.9,19.17,19.17,0,0,1,3.53-1.22,26.54,26.54,0,0,1,3.64-.59c1.22-.11,2.44-.16,3.64-.17s2.41,0,3.57,0,2.23.05,3.33,0,2.16,0,3.21-.14a20.67,20.67,0,0,0,3.07-.48,14.89,14.89,0,0,0,2.88-1c.45-.22.9-.46,1.34-.73a15.19,15.19,0,0,0,1.28-.92,14.11,14.11,0,0,0,1.21-1.13,15.22,15.22,0,0,0,1.15-1.34,13.79,13.79,0,0,0,2.29-4.45,14.06,14.06,0,0,0,.53-4.49,24.18,24.18,0,0,0-.64-4.56c-.34-1.53-.79-3.07-1.24-4.64s-1-3.3-1.33-5a27.34,27.34,0,0,1-.69-5.17,16.18,16.18,0,0,1,.64-5.19,15.08,15.08,0,0,1,2.67-5.07,16.32,16.32,0,0,1,1.33-1.5,14.5,14.5,0,0,1,1.4-1.23,15.38,15.38,0,0,1,1.48-1,15.73,15.73,0,0,1,1.53-.78,16.73,16.73,0,0,1,3.26-1,24.29,24.29,0,0,1,3.38-.46c1.13-.08,2.27-.09,3.4-.08s2.24.07,3.32.11,2.09.09,3.1.11,2,0,3-.06a20.36,20.36,0,0,0,2.85-.37,13.55,13.55,0,0,0,2.66-.86,12,12,0,0,0,1.23-.64,11.84,11.84,0,0,0,1.18-.82,11.52,11.52,0,0,0,1.11-1,12.61,12.61,0,0,0,1-1.21,11.73,11.73,0,0,0,2-4,12.48,12.48,0,0,0,.4-4.12,23.35,23.35,0,0,0-.71-4.2c-.36-1.42-.81-2.85-1.27-4.3s-1-3.06-1.35-4.64a25.11,25.11,0,0,1-.78-4.77,14.88,14.88,0,0,1,.48-4.77,13.16,13.16,0,0,1,2.38-4.62,14.48,14.48,0,0,1,1.21-1.35,13.08,13.08,0,0,1,1.28-1.1,12.68,12.68,0,0,1,1.36-.89,13.12,13.12,0,0,1,1.41-.69,15.49,15.49,0,0,1,3-.9,20.8,20.8,0,0,1,3.15-.35c1.06-.05,2.12,0,3.17,0s2.1.11,3.12.18,2,.12,2.91.16,1.88.05,2.8,0a19.16,19.16,0,0,0,2.66-.29,12.32,12.32,0,0,0,2.47-.73,12.12,12.12,0,0,0,1.14-.57,10.77,10.77,0,0,0,1.08-.73,10.6,10.6,0,0,0,1-.9,13,13,0,0,0,1-1.1,10.37,10.37,0,0,0,1.81-3.69,11.29,11.29,0,0,0,.28-3.8,21.3,21.3,0,0,0-.76-3.9c-.36-1.31-.82-2.64-1.28-4s-1-2.84-1.37-4.3a22.88,22.88,0,0,1-.83-4.43,13,13,0,0,1,.34-4.4,11.39,11.39,0,0,1,2.12-4.23,10.91,10.91,0,0,1,1.1-1.22,10.88,10.88,0,0,1,1.19-1,9.79,9.79,0,0,1,1.25-.8,13,13,0,0,1,1.31-.61,13.86,13.86,0,0,1,2.82-.77,20.6,20.6,0,0,1,3-.26c1,0,2,0,3,.06s2,.14,2.93.22,1.83.16,2.73.21,1.77.08,2.63.07a17,17,0,0,0,2.49-.22,10.66,10.66,0,0,0,2.31-.63,8.4,8.4,0,0,0,1-.5,8.15,8.15,0,0,0,1-.65,9,9,0,0,0,.94-.82,10.76,10.76,0,0,0,.87-1,9,9,0,0,0,1.62-3.38,10.13,10.13,0,0,0,.18-3.52,18.77,18.77,0,0,0-.79-3.63c-.37-1.22-.83-2.47-1.29-3.73s-1-2.66-1.39-4a23.2,23.2,0,0,1-.87-4.13,11.91,11.91,0,0,1,.23-4.08,10,10,0,0,1,1.9-3.88,12.29,12.29,0,0,1,1-1.12,11.3,11.3,0,0,1,1.09-.9,8.9,8.9,0,0,1,1.17-.71A10.32,10.32,0,0,1,1258-729.36Z" transform="translate(673.04 784.13)"/></g></g><g id="Group_3" data-name="Group 3"><g id="Path_3-2" data-name="Path 3-2"><path class="cls-1" d="M1261.2-748.66a9.37,9.37,0,0,1-6.43,3.45,33.86,33.86,0,0,1-7.92-.28,34.37,34.37,0,0,0-8-.27,9.88,9.88,0,0,0-6.68,3.52,9.4,9.4,0,0,0-2.12,7.15,32.31,32.31,0,0,0,2.08,7.66,33.09,33.09,0,0,1,2.09,7.74,9.89,9.89,0,0,1-2.14,7.42,10.39,10.39,0,0,1-6.93,3.85,35.23,35.23,0,0,1-8.4-.12,36,36,0,0,0-8.49-.13,11,11,0,0,0-7.19,3.94,10.48,10.48,0,0,0-2.44,7.74,34.07,34.07,0,0,0,2,8.22,34.4,34.4,0,0,1,2,8.3,11.13,11.13,0,0,1-2.47,8.05,11.74,11.74,0,0,1-7.48,4.32,37.82,37.82,0,0,1-9,.05,38.06,38.06,0,0,0-9,.06,12.41,12.41,0,0,0-7.78,4.42,11.86,11.86,0,0,0-2.8,8.42,35.19,35.19,0,0,0,1.93,8.84,37,37,0,0,1,2,8.94,12.63,12.63,0,0,1-2.85,8.77,13.23,13.23,0,0,1-8.11,4.85,40,40,0,0,1-9.59.28,39.69,39.69,0,0,0-9.68.28,14,14,0,0,0-8.45,5,13.56,13.56,0,0,0-3.25,9.21,38.31,38.31,0,0,0,1.82,9.55,38.83,38.83,0,0,1,1.84,9.66,14.41,14.41,0,0,1-3.3,9.61,15,15,0,0,1-8.84,5.48,41.78,41.78,0,0,1-10.3.55,42.67,42.67,0,0,0-10.4.54,16,16,0,0,0-9.22,5.64,15.51,15.51,0,0,0-3.76,10.12,41.06,41.06,0,0,0,1.67,10.37,41.42,41.42,0,0,1,1.69,10.49,16.58,16.58,0,0,1-3.84,10.58,17.33,17.33,0,0,1-9.68,6.23,45.48,45.48,0,0,1-11.11.86,46,46,0,0,0-11.23.88,18.47,18.47,0,0,0-10.13,6.41,18.08,18.08,0,0,0-4.38,11.18,45,45,0,0,0,1.48,11.32,45.23,45.23,0,0,1,1.5,11.46,19.36,19.36,0,0,1-4.48,11.72,20.07,20.07,0,0,1-10.67,7.11,48.65,48.65,0,0,1-12,1.27,50,50,0,0,0-12.19,1.29,21.41,21.41,0,0,0-11.19,7.34,21.21,21.21,0,0,0-5.12,12.44c-.3,4.14.46,8.28,1.23,12.42s1.54,8.35,1.24,12.6a22.77,22.77,0,0,1-5.26,13.06,23.45,23.45,0,0,1-11.83,8.18c-4.24,1.31-8.69,1.54-13.15,1.77s-9,.46-13.31,1.79a27.08,27.08,0,0,0-18.47,22.4c-.48,4.61.2,9.16.89,13.74s1.39,9.21.91,13.93a27.25,27.25,0,0,1-6.21,14.69A28.11,28.11,0,0,1,907-312.86c-4.69,1.6-9.56,2-14.45,2.39s-9.84.8-14.63,2.43a32.72,32.72,0,0,0-21.09,25.57c-.7,5.16-.12,10.22.45,15.31s1.17,10.25.46,15.54A32.94,32.94,0,0,1,850.39-235a33.73,33.73,0,0,1-14.9,11.07c-5.21,2-10.59,2.56-16,3.18s-10.87,1.25-16.21,3.23a36.58,36.58,0,0,0-15.79,11.54A37.15,37.15,0,0,0,779-188c-1,5.82-.56,11.5-.14,17.21s.87,11.5-.13,17.49a40.52,40.52,0,0,1-8.87,19.05,41.34,41.34,0,0,1-17,13.06c-5.86,2.4-11.84,3.3-17.85,4.2s-12.1,1.82-18.13,4.27-12.08,6.49-18,13.67A46.06,46.06,0,0,0,688.6-78.38c-1.37,6.65-1.15,13.09-.93,19.55s.44,13-.95,19.9S682.3-24.78,676-16.88,663.06-4.24,656.44-1.28,643.06,3,636.3,4.26s-13.63,2.58-20.48,5.63S602,17.81,595,26.28s-10.7,16.49-12.55,24.13-1.93,15.08-2,22.5-.15,15-2,22.92-5.68,16.48-13.19,25.87-15.19,15.16-22.8,18.88-15.32,5.53-23,7.31-15.53,3.6-23.44,7.45-16.09,9.81-24.49,19.94-13,19.64-15.54,28.6-3,17.62-3.51,26.26-1,17.44-3.58,26.8-7.37,19.51-16.44,30.85S414.17,306.27,405.28,311s-17.81,7.25-26.71,9.73-18,5-27.24,9.92-19,12.35-29.25,24.7c-10.37,12.51-16.13,23.8-19.56,34.5s-4.55,20.95-5.64,31.19-2.21,20.69-5.77,31.91-9.7,23.54-20.86,37.51c-11.33,14.15-22.15,23-32.74,29.13s-21.09,9.64-31.56,13.1-21.17,7-32.26,13.4S150.77,562,138,577.33c-12.94,15.6-20.43,29.49-25.17,42.55s-6.75,25.48-8.74,37.87-4,25.09-9,38.86-13,29.07-27.1,46.69c-14.31,17.9-27.67,29.32-40.58,37.47s-25.56,13.09-38.18,18-25.52,9.92-39.13,18.45S-78.2,838.1-94.52,857.77c-16.58,20-26.58,37.57-33.26,54-6.75,16.56-10.07,31.85-13.43,47.28s-6.8,31.28-13.82,48.67c-7.1,17.59-17.93,37-36.26,59.91-18.67,23.34-35.69,38.58-51.92,49.72-16.4,11.26-31.93,18.29-47.58,25.38s-31.72,14.36-48.95,26.11c-17.42,11.87-36.26,28.45-57.87,54.51-22,26.57-35.85,49.59-45.53,70.88-9.8,21.57-15.3,41.28-20.86,61.19-5.62,20.12-11.3,40.45-21.57,63.28-10.42,23.12-25.6,48.92-50.43,80" transform="translate(673.04 784.13)"/><path class="cls-2" d="M1235-746.81a13.71,13.71,0,0,1,2.68-.62,20.11,20.11,0,0,1,2.81-.16c.94,0,1.89.06,2.83.14s1.88.18,2.79.29,1.75.19,2.6.26,1.69.13,2.51.14a16.7,16.7,0,0,0,2.37-.13,10.68,10.68,0,0,0,2.2-.51,7.35,7.35,0,0,0,1-.43,8.24,8.24,0,0,0,1-.57,8.75,8.75,0,0,0,.89-.72,7.91,7.91,0,0,0,.82-.9l3.52,2.71a9.93,9.93,0,0,1-1,1.06,9.69,9.69,0,0,1-1.07.87,8.68,8.68,0,0,1-1.13.68,11.6,11.6,0,0,1-1.21.52,13.43,13.43,0,0,1-2.61.63,19.48,19.48,0,0,1-2.76.16c-.94,0-1.88-.05-2.82-.13s-1.87-.18-2.79-.28l-2.61-.27c-.86-.07-1.7-.12-2.52-.13a17.27,17.27,0,0,0-2.41.13,11.16,11.16,0,0,0-2.25.52,10.53,10.53,0,0,0-1,.45,8.13,8.13,0,0,0-1,.58,8,8,0,0,0-.93.75,9.46,9.46,0,0,0-.87.91,8.3,8.3,0,0,0-1.67,3.18,9.45,9.45,0,0,0-.24,3.36,19.39,19.39,0,0,0,.73,3.54c.36,1.2.8,2.42,1.24,3.67s1,2.63,1.35,4a22.07,22.07,0,0,1,.83,4.13,12,12,0,0,1-.28,4.14,10.63,10.63,0,0,1-2,4,12,12,0,0,1-1.07,1.16,10.26,10.26,0,0,1-1.15,1,13,13,0,0,1-1.22.76,13.59,13.59,0,0,1-1.3.58,13.32,13.32,0,0,1-2.79.73,22,22,0,0,1-2.94.24c-1,0-2,0-3-.08s-2-.16-3-.25-1.86-.16-2.77-.22-1.8-.1-2.68-.09a18,18,0,0,0-2.57.19,12.07,12.07,0,0,0-2.4.61c-.38.15-.75.31-1.12.5a10.78,10.78,0,0,0-1.06.65,12.51,12.51,0,0,0-1,.82,11.44,11.44,0,0,0-.94,1,9.47,9.47,0,0,0-1.86,3.46,10.3,10.3,0,0,0-.34,3.63,19.31,19.31,0,0,0,.69,3.79c.35,1.29.78,2.6,1.23,3.93s.94,2.82,1.33,4.27a24.16,24.16,0,0,1,.78,4.44,13.21,13.21,0,0,1-.4,4.46,12,12,0,0,1-2.25,4.37,14.38,14.38,0,0,1-1.16,1.28,13.51,13.51,0,0,1-1.25,1.06,13.44,13.44,0,0,1-1.33.84,12.58,12.58,0,0,1-1.39.66,14.26,14.26,0,0,1-3,.85,21.84,21.84,0,0,1-3.14.33c-1.06,0-2.12,0-3.18,0s-2.12-.12-3.15-.2-2-.14-3-.18-1.92-.06-2.86,0a20.51,20.51,0,0,0-2.74.26,13.33,13.33,0,0,0-2.58.72,10.88,10.88,0,0,0-1.2.56,11.83,11.83,0,0,0-1.16.73,10.11,10.11,0,0,0-1.09.91,12.27,12.27,0,0,0-1,1.11,10.74,10.74,0,0,0-2.07,3.78,11.62,11.62,0,0,0-.47,3.93,21.07,21.07,0,0,0,.64,4.08c.34,1.39.77,2.8,1.21,4.23s.93,3,1.3,4.59a25,25,0,0,1,.73,4.78,14.87,14.87,0,0,1-.55,4.85,13.71,13.71,0,0,1-2.52,4.77,14.77,14.77,0,0,1-1.28,1.42,14.91,14.91,0,0,1-1.36,1.18,16.25,16.25,0,0,1-1.44,1,15.14,15.14,0,0,1-1.51.75,17.23,17.23,0,0,1-3.23,1,25.09,25.09,0,0,1-3.36.43c-1.14.06-2.28.07-3.41.05s-2.26-.08-3.36-.14-2.11-.1-3.15-.13-2.06,0-3.06,0a20.35,20.35,0,0,0-2.94.35,14,14,0,0,0-2.78.84,11.31,11.31,0,0,0-1.31.64,11.65,11.65,0,0,0-1.25.82,12.35,12.35,0,0,0-1.2,1,13.58,13.58,0,0,0-1.14,1.23,12.49,12.49,0,0,0-2.33,4.15,12.74,12.74,0,0,0-.6,4.28,22.57,22.57,0,0,0,.56,4.41c.33,1.5.75,3,1.18,4.56s.91,3.26,1.27,5a26.5,26.5,0,0,1,.64,5.18,16.55,16.55,0,0,1-.72,5.27,16,16,0,0,1-2.83,5.26,20,20,0,0,1-1.41,1.58,18,18,0,0,1-1.5,1.31,17.42,17.42,0,0,1-1.57,1.07,16,16,0,0,1-1.64.85,18.32,18.32,0,0,1-3.49,1.16,24.73,24.73,0,0,1-3.62.55c-1.22.11-2.45.14-3.66.14s-2.43,0-3.61-.06-2.26-.06-3.37-.06-2.22,0-3.29.11a23.5,23.5,0,0,0-3.17.46,16.41,16.41,0,0,0-3,1,12.73,12.73,0,0,0-1.42.73,14.26,14.26,0,0,0-1.37.92,15.22,15.22,0,0,0-1.32,1.13,18.6,18.6,0,0,0-1.26,1.37,14.7,14.7,0,0,0-2.62,4.58,14.63,14.63,0,0,0-.78,4.68,25.53,25.53,0,0,0,.48,4.8c.3,1.63.72,3.27,1.13,4.94s.89,3.54,1.22,5.38a29.38,29.38,0,0,1,.54,5.64,18.92,18.92,0,0,1-.93,5.78,18.88,18.88,0,0,1-3.21,5.82,22.49,22.49,0,0,1-1.56,1.75,20.39,20.39,0,0,1-1.65,1.48c-.57.44-1.14.84-1.73,1.21a18.23,18.23,0,0,1-1.79,1,20.48,20.48,0,0,1-3.79,1.37,29.57,29.57,0,0,1-3.92.7c-1.32.14-2.64.21-4,.25s-2.61,0-3.88,0-2.44,0-3.64,0-2.39.09-3.55.21a25.86,25.86,0,0,0-3.43.59,17.78,17.78,0,0,0-3.28,1.16,14.63,14.63,0,0,0-1.56.83,17.86,17.86,0,0,0-1.51,1.05,17,17,0,0,0-1.45,1.28,17.5,17.5,0,0,0-1.41,1.53,17.32,17.32,0,0,0-3,5.08,16.66,16.66,0,0,0-1,5.15,26.72,26.72,0,0,0,.37,5.25c.27,1.77.67,3.56,1.07,5.38s.84,3.86,1.14,5.86a32.44,32.44,0,0,1,.41,6.17,21.61,21.61,0,0,1-1.19,6.37,22.28,22.28,0,0,1-3.65,6.48,24.25,24.25,0,0,1-1.75,2,20.31,20.31,0,0,1-1.83,1.67,22.33,22.33,0,0,1-1.9,1.38,21.41,21.41,0,0,1-2,1.12,24.63,24.63,0,0,1-4.16,1.61,29.8,29.8,0,0,1-4.26.87c-1.43.2-2.86.32-4.28.39s-2.83.11-4.2.15-2.64.06-3.94.13-2.59.16-3.85.33a27.79,27.79,0,0,0-3.74.74,20.38,20.38,0,0,0-3.59,1.37q-.87.43-1.71,1a19.92,19.92,0,0,0-1.67,1.2,21.44,21.44,0,0,0-1.62,1.44c-.54.53-1.06,1.11-1.58,1.73a20.45,20.45,0,0,0-3.39,5.68,19.14,19.14,0,0,0-1.24,5.7,30.22,30.22,0,0,0,.22,5.77c.24,1.94.61,3.91,1,5.9s.79,4.23,1,6.43a35.6,35.6,0,0,1,.23,6.79,25,25,0,0,1-1.5,7.07,26.28,26.28,0,0,1-4.18,7.26c-.64.8-1.29,1.54-2,2.23a23.89,23.89,0,0,1-2.05,1.89,23.17,23.17,0,0,1-2.11,1.58,23.47,23.47,0,0,1-2.17,1.3,27.18,27.18,0,0,1-4.57,1.91,37.16,37.16,0,0,1-4.67,1.1c-1.56.26-3.12.43-4.66.56s-3.08.2-4.58.28-2.87.15-4.29.26-2.82.27-4.2.49a28.52,28.52,0,0,0-4.09.94,22.43,22.43,0,0,0-4,1.62,19.64,19.64,0,0,0-1.9,1.12,21.11,21.11,0,0,0-1.86,1.37c-.61.5-1.22,1.05-1.82,1.65a26.26,26.26,0,0,0-1.77,2,24.4,24.4,0,0,0-3.9,6.4,22.35,22.35,0,0,0-1.56,6.35,34,34,0,0,0,0,6.38c.19,2.15.52,4.32.85,6.52s.71,4.66.92,7.1a40.28,40.28,0,0,1,0,7.53,29.28,29.28,0,0,1-1.89,7.89,31.81,31.81,0,0,1-4.82,8.2c-.73.91-1.47,1.76-2.23,2.54a31.09,31.09,0,0,1-2.3,2.18c-.78.66-1.57,1.27-2.37,1.82a27.07,27.07,0,0,1-2.42,1.52,31,31,0,0,1-5.06,2.26,38.33,38.33,0,0,1-5.14,1.38c-1.71.34-3.43.58-5.12.77s-3.38.33-5,.47-3.15.26-4.7.43-3.1.38-4.62.68a32.9,32.9,0,0,0-4.51,1.18A26.51,26.51,0,0,0,875-303c-.71.39-1.42.83-2.12,1.31s-1.4,1-2.09,1.59-1.37,1.21-2,1.9-1.35,1.43-2,2.24a30.1,30.1,0,0,0-4.52,7.26,27.09,27.09,0,0,0-2,7.14,38.51,38.51,0,0,0-.2,7.12c.13,2.39.41,4.8.69,7.25s.6,5.18.73,7.9a46,46,0,0,1-.27,8.41,35.23,35.23,0,0,1-2.38,8.89,38.92,38.92,0,0,1-5.62,9.35c-.83,1.05-1.68,2-2.54,2.93s-1.73,1.74-2.61,2.51-1.78,1.48-2.67,2.13-1.81,1.24-2.72,1.78a36,36,0,0,1-5.66,2.71,44.26,44.26,0,0,1-5.71,1.72c-1.9.45-3.8.78-5.67,1s-3.72.49-5.54.7-3.47.41-5.19.65-3.42.54-5.11.92a41.64,41.64,0,0,0-5,1.48,31.38,31.38,0,0,0-4.92,2.33,28.41,28.41,0,0,0-2.39,1.54c-.8.57-1.59,1.18-2.37,1.86s-1.57,1.41-2.35,2.2-1.55,1.66-2.32,2.6a37.59,37.59,0,0,0-5.28,8.31,31.86,31.86,0,0,0-2.44,8.1,45,45,0,0,0-.52,8c0,2.69.25,5.39.46,8.13s.45,5.82.48,8.87a53.41,53.41,0,0,1-.65,9.49,41.61,41.61,0,0,1-3,10.12,48.73,48.73,0,0,1-6.59,10.75q-1.46,1.83-2.94,3.4c-1,1.06-2,2-3,2.94s-2,1.73-3.05,2.5-2,1.47-3.08,2.12a44.38,44.38,0,0,1-6.38,3.28,50.21,50.21,0,0,1-6.4,2.16c-2.12.58-4.24,1-6.33,1.4s-4.15.7-6.17,1-3.87.59-5.79.94-3.82.73-5.7,1.23a46,46,0,0,0-5.64,1.87,37.38,37.38,0,0,0-5.57,2.82c-.91.56-1.81,1.17-2.72,1.84s-1.81,1.4-2.71,2.19-1.8,1.66-2.7,2.59-1.8,1.94-2.69,3a46.56,46.56,0,0,0-6.25,9.63,39.31,39.31,0,0,0-3.08,9.28,53.57,53.57,0,0,0-.94,9.13c-.07,3,0,6.11.15,9.22s.23,6.59.14,10.06a63.68,63.68,0,0,1-1.16,10.82,51.85,51.85,0,0,1-3.79,11.64,61.85,61.85,0,0,1-7.84,12.52q-1.71,2.14-3.43,4c-1.16,1.24-2.32,2.39-3.48,3.47s-2.34,2.06-3.52,3S666.46-2,665.28-1.19a52.54,52.54,0,0,1-7.27,4,61.35,61.35,0,0,1-7.25,2.73c-2.41.75-4.79,1.35-7.14,1.87s-4.68,1-7,1.4-4.36.83-6.52,1.3-4.31,1-6.44,1.65a54.56,54.56,0,0,0-6.4,2.37,46.82,46.82,0,0,0-6.37,3.45c-1,.68-2.09,1.42-3.14,2.22s-2.09,1.68-3.14,2.63-2.1,2-3.15,3.07-2.11,2.3-3.17,3.58a60.38,60.38,0,0,0-7.47,11.3A49.43,49.43,0,0,0,587,51.17a62.88,62.88,0,0,0-1.5,10.52c-.24,3.5-.26,7-.29,10.58s-.07,7.56-.34,11.56A76.33,76.33,0,0,1,583,96.32a64.18,64.18,0,0,1-4.84,13.56,79.36,79.36,0,0,1-9.45,14.78c-1.35,1.7-2.7,3.28-4.06,4.77s-2.73,2.87-4.1,4.16-2.74,2.49-4.11,3.6-2.75,2.14-4.12,3.1a67.87,67.87,0,0,1-8.4,5,74.57,74.57,0,0,1-8.32,3.49c-2.76,1-5.48,1.77-8.16,2.48s-5.33,1.33-7.92,1.93-5,1.16-7.43,1.81-4.92,1.36-7.37,2.2a65.25,65.25,0,0,0-7.35,3,57,57,0,0,0-7.39,4.29q-1.83,1.25-3.67,2.72t-3.7,3.18c-1.24,1.15-2.48,2.38-3.73,3.71s-2.51,2.76-3.78,4.3A78.66,78.66,0,0,0,466,191.85a63.28,63.28,0,0,0-5,12.69,78.65,78.65,0,0,0-2.27,12.3c-.46,4.09-.68,8.17-.91,12.32-.24,4.32-.48,8.81-1,13.47A95.28,95.28,0,0,1,454,257.29a84.42,84.42,0,0,1-6.26,16,105,105,0,0,1-11.57,17.73c-1.63,2.05-3.26,4-4.89,5.78s-3.26,3.49-4.89,5.06-3.27,3.06-4.89,4.43-3.26,2.64-4.88,3.83a85.27,85.27,0,0,1-9.86,6.22,92,92,0,0,1-9.7,4.51c-3.19,1.28-6.35,2.35-9.45,3.32s-6.16,1.82-9.16,2.67-5.75,1.61-8.6,2.49-5.71,1.84-8.56,3a84,84,0,0,0-8.6,3.94A75.31,75.31,0,0,0,344,341.7c-1.44,1-2.9,2.16-4.36,3.38s-2.94,2.52-4.43,3.93-3,2.93-4.5,4.56-3,3.38-4.59,5.25a105.92,105.92,0,0,0-11.22,16.32,83.61,83.61,0,0,0-6.53,15.22A100.36,100.36,0,0,0,305,405c-.77,4.85-1.27,9.68-1.79,14.6-.53,5.12-1.09,10.44-2,16a122.28,122.28,0,0,1-4.08,17.5A112.2,112.2,0,0,1,289,472.46a143.87,143.87,0,0,1-14.44,21.69q-3,3.8-6,7.13t-6,6.3q-3,3-5.93,5.54T250.73,518a114.07,114.07,0,0,1-11.81,8,115.59,115.59,0,0,1-11.51,5.92c-3.79,1.71-7.51,3.17-11.17,4.5s-7.26,2.53-10.79,3.7-6.77,2.26-10.14,3.47-6.74,2.53-10.13,4a106,106,0,0,0-10.24,5.19,100.51,100.51,0,0,0-10.49,7c-1.75,1.33-3.51,2.75-5.29,4.29s-3.59,3.19-5.42,5-3.67,3.68-5.54,5.72-3.77,4.22-5.69,6.55a146.93,146.93,0,0,0-14.19,20.23,114.85,114.85,0,0,0-8.66,18.67,133.16,133.16,0,0,0-4.94,17.8c-1.23,5.88-2.15,11.73-3.09,17.69-1,6.2-2,12.64-3.43,19.39a165.38,165.38,0,0,1-6,21.37,155.22,155.22,0,0,1-10.94,23.93A202.8,202.8,0,0,1,72.8,747.5q-3.81,4.79-7.57,9t-7.46,8c-2.48,2.53-4.94,4.89-7.37,7.11s-4.86,4.3-7.26,6.25a156,156,0,0,1-14.48,10.45,161,161,0,0,1-14,8c-4.59,2.32-9.09,4.34-13.5,6.2s-8.76,3.55-13,5.21c-4.1,1.6-8.17,3.2-12.24,4.9s-8.16,3.52-12.27,5.57a143.18,143.18,0,0,0-12.51,7,140.1,140.1,0,0,0-13,9.23q-3.26,2.61-6.6,5.6t-6.8,6.43q-3.45,3.45-7,7.37c-2.38,2.63-4.81,5.42-7.27,8.41A212.9,212.9,0,0,0-107.92,888a164.45,164.45,0,0,0-11.78,23.53A188.35,188.35,0,0,0-127,933.83c-1.94,7.33-3.5,14.61-5.09,22-1.67,7.73-3.39,15.75-5.64,24.19a231.28,231.28,0,0,1-8.86,26.86,226,226,0,0,1-15,30.45,301.55,301.55,0,0,1-24.34,35.11q-5,6.24-9.82,11.8t-9.64,10.56q-4.77,5-9.44,9.41t-9.26,8.34a226.22,226.22,0,0,1-18.31,14.14c-6,4.15-11.83,7.76-17.55,11s-11.33,6.12-16.82,8.78-10.88,5.12-16.16,7.52c-5.09,2.32-10.15,4.63-15.22,7.07s-10.18,5.05-15.34,7.94-10.42,6.1-15.77,9.77a205.61,205.61,0,0,0-16.52,12.59c-2.79,2.36-5.63,4.87-8.52,7.56s-5.83,5.57-8.83,8.63-6.06,6.35-9.19,9.83-6.33,7.22-9.59,11.18a326.21,326.21,0,0,0-24.8,34,250.87,250.87,0,0,0-16.54,30.76,276.25,276.25,0,0,0-11,28.83c-3,9.48-5.65,18.87-8.29,28.43-2.76,10-5.63,20.34-9.18,31.29a348.48,348.48,0,0,1-13.41,35,349.26,349.26,0,0,1-21.37,40.27,474.55,474.55,0,0,1-33.39,47.22l-12.31-11.59a401.1,401.1,0,0,0,28.11-39.27,287.13,287.13,0,0,0,18.12-33.81,299.25,299.25,0,0,0,11.72-30.49c3.21-9.8,5.92-19.4,8.65-29.09,2.82-10,5.72-20.3,9.27-31a325.53,325.53,0,0,1,13.05-33.52,308.6,308.6,0,0,1,20-36.82,387,387,0,0,1,29.9-40.76q5.85-7,11.49-13.24t11-11.67q5.4-5.45,10.59-10.23t10.19-9c6.78-5.67,13.32-10.58,19.66-14.89s12.4-8,18.32-11.33,11.62-6.19,17.18-8.85,10.93-5.08,16.19-7.45c5-2.26,10-4.5,15-6.87s9.89-4.84,14.85-7.6,9.92-5.77,15-9.21a183,183,0,0,0,15.3-11.67c2.55-2.17,5.13-4.46,7.73-6.91s5.22-5,7.88-7.81,5.34-5.67,8.06-8.78,5.47-6.38,8.27-9.85a255.82,255.82,0,0,0,20.49-29.2A185.79,185.79,0,0,0-163.45,1008a199.63,199.63,0,0,0,7.73-23.35c2-7.55,3.66-15,5.31-22.46,1.7-7.75,3.46-15.71,5.71-24A219.42,219.42,0,0,1-136,912.33a202.2,202.2,0,0,1,14.25-28.16,253.18,253.18,0,0,1,22.2-30.88q4.43-5.29,8.7-10c2.85-3.11,5.66-6,8.42-8.74s5.48-5.26,8.16-7.63,5.3-4.57,7.9-6.64A174,174,0,0,1-51,809.39c5-3.12,9.83-5.79,14.55-8.14s9.29-4.38,13.75-6.24,8.8-3.53,13-5.16c4.06-1.57,8.08-3.12,12.08-4.77s8-3.4,11.93-5.36,7.94-4.15,12-6.66a126.52,126.52,0,0,0,12.1-8.64c2-1.61,4-3.33,6.07-5.18s4.08-3.8,6.15-5.9,4.14-4.31,6.25-6.68,4.22-4.87,6.36-7.54a172.06,172.06,0,0,0,15.55-22.59,127.46,127.46,0,0,0,9.28-20.07,141.15,141.15,0,0,0,5.21-18.57c1.29-6,2.26-12,3.24-18,1-6.21,2-12.61,3.49-19.26A156.47,156.47,0,0,1,106,620a140.88,140.88,0,0,1,10.48-22.32,173.8,173.8,0,0,1,17.09-24.24q3.45-4.14,6.83-7.77t6.65-6.78q3.28-3.17,6.5-5.89c2.14-1.83,4.25-3.52,6.34-5.09a122.43,122.43,0,0,1,12.5-8.28,128.5,128.5,0,0,1,11.91-6c3.88-1.71,7.66-3.18,11.36-4.51s7.3-2.5,10.81-3.66,6.71-2.2,10-3.38,6.59-2.44,9.88-3.89a100.52,100.52,0,0,0,9.83-4.95,92.28,92.28,0,0,0,9.89-6.59c1.63-1.24,3.26-2.58,4.91-4s3.29-3,4.95-4.6,3.32-3.38,5-5.25,3.36-3.84,5.06-5.95a121.35,121.35,0,0,0,12.16-18,91.91,91.91,0,0,0,6.95-16.24,105.05,105.05,0,0,0,3.54-15.19c.81-5,1.35-9.86,1.89-14.82.55-5.13,1.13-10.42,2-15.89a118.2,118.2,0,0,1,4-17,102.31,102.31,0,0,1,7.91-18.2A125.3,125.3,0,0,1,318,351.9c1.84-2.22,3.68-4.29,5.5-6.22s3.61-3.73,5.4-5.41,3.56-3.23,5.32-4.67,3.5-2.77,5.22-4a90.66,90.66,0,0,1,10.39-6.43,96.35,96.35,0,0,1,10-4.58c3.27-1.29,6.47-2.37,9.61-3.33s6.19-1.81,9.17-2.63,5.7-1.58,8.52-2.44,5.59-1.78,8.37-2.86a79,79,0,0,0,8.29-3.77,69.78,69.78,0,0,0,8.26-5.15c1.36-1,2.71-2,4.07-3.17s2.72-2.37,4.09-3.68,2.72-2.72,4.09-4.22,2.74-3.11,4.12-4.82a89,89,0,0,0,9.74-14.74,68.36,68.36,0,0,0,5.31-13.45,82.28,82.28,0,0,0,2.4-12.72c.48-4.17.72-8.3,1-12.49s.52-8.78,1.07-13.39a93,93,0,0,1,2.76-14.25,77.52,77.52,0,0,1,6.08-15.16,92.68,92.68,0,0,1,10.93-16.13q2.26-2.73,4.53-5.1c1.5-1.58,3-3,4.48-4.4s3-2.62,4.45-3.78,2.93-2.23,4.39-3.22a72.68,72.68,0,0,1,8.81-5.1,76.77,76.77,0,0,1,8.56-3.53c2.81-1,5.57-1.78,8.28-2.48s5.34-1.31,7.93-1.91,4.93-1.13,7.36-1.76,4.84-1.32,7.23-2.14a60.53,60.53,0,0,0,7.12-2.91,54.34,54.34,0,0,0,7-4.1c1.15-.79,2.3-1.64,3.44-2.57s2.29-1.92,3.44-3,2.28-2.23,3.42-3.47,2.28-2.56,3.42-4a66.81,66.81,0,0,0,8-12.28,52.16,52.16,0,0,0,4.11-11.36,65.67,65.67,0,0,0,1.59-10.84c.25-3.57.29-7.12.33-10.71s.09-7.55.38-11.5a73.92,73.92,0,0,1,1.85-12.17A60.23,60.23,0,0,1,582.55,37a71,71,0,0,1,9-13.55c1.27-1.52,2.53-2.93,3.8-4.24s2.53-2.53,3.79-3.65,2.52-2.16,3.78-3.12,2.5-1.83,3.76-2.63a56,56,0,0,1,7.59-4.1A64.66,64.66,0,0,1,621.71,3c2.44-.74,4.86-1.34,7.23-1.86s4.69-.95,7-1.37,4.34-.82,6.47-1.27,4.24-1,6.33-1.61a49.43,49.43,0,0,0,6.21-2.28A43.36,43.36,0,0,0,661-8.74c1-.64,2-1.34,3-2.11s2-1.59,2.94-2.48,1.94-1.85,2.91-2.89,1.92-2.15,2.88-3.34A51.79,51.79,0,0,0,679.3-30a42.35,42.35,0,0,0,3.23-9.75,56,56,0,0,0,1-9.39c.08-3.1,0-6.19-.12-9.32s-.21-6.57-.1-10A61.3,61.3,0,0,1,684.48-79a48.3,48.3,0,0,1,3.73-11.09,55.94,55.94,0,0,1,7.51-11.54c1.08-1.29,2.15-2.48,3.24-3.59s2.16-2.13,3.24-3.07,2.17-1.81,3.26-2.61,2.18-1.52,3.27-2.18a46,46,0,0,1,6.64-3.35,54.18,54.18,0,0,1,6.56-2.18c2.16-.57,4.3-1,6.4-1.4s4.17-.68,6.19-1,3.85-.57,5.74-.9,3.77-.72,5.62-1.2a44.47,44.47,0,0,0,5.48-1.81,36.28,36.28,0,0,0,5.35-2.7c.86-.54,1.72-1.12,2.58-1.76s1.7-1.33,2.54-2.09,1.68-1.57,2.51-2.45,1.65-1.82,2.47-2.84a40.73,40.73,0,0,0,5.56-8.93,34.17,34.17,0,0,0,2.55-8.47,45.73,45.73,0,0,0,.55-8.23c0-2.73-.23-5.45-.43-8.21s-.43-5.8-.46-8.83a51.89,51.89,0,0,1,.69-9.28,38.87,38.87,0,0,1,3-9.67,44.26,44.26,0,0,1,6.35-10c.92-1.1,1.85-2.12,2.79-3.07s1.87-1.82,2.81-2.62,1.9-1.53,2.85-2.2,1.91-1.28,2.87-1.83a38.35,38.35,0,0,1,5.87-2.76,47.69,47.69,0,0,1,5.84-1.74c1.94-.44,3.85-.77,5.74-1s3.74-.48,5.55-.68,3.46-.39,5.16-.63,3.38-.52,5-.9a37,37,0,0,0,4.9-1.43,30,30,0,0,0,4.74-2.24c.76-.45,1.52-.94,2.27-1.48s1.5-1.13,2.23-1.77,1.47-1.34,2.19-2.1,1.43-1.56,2.14-2.44a32.93,32.93,0,0,0,4.73-7.76,28.3,28.3,0,0,0,2-7.45,39.64,39.64,0,0,0,.22-7.3c-.12-2.42-.39-4.85-.67-7.31s-.58-5.17-.7-7.86a44,44,0,0,1,.3-8.24,32.43,32.43,0,0,1,2.37-8.52,35.5,35.5,0,0,1,5.43-8.71c.8-1,1.61-1.84,2.42-2.66s1.64-1.56,2.48-2.25,1.66-1.31,2.51-1.89,1.69-1.08,2.54-1.55a33.38,33.38,0,0,1,5.25-2.3,41.1,41.1,0,0,1,5.25-1.38c1.74-.34,3.48-.58,5.18-.77s3.39-.32,5-.45,3.13-.25,4.67-.42,3.06-.37,4.55-.65a33.18,33.18,0,0,0,4.41-1.14,25.58,25.58,0,0,0,4.24-1.87c.69-.38,1.36-.8,2-1.26a24.74,24.74,0,0,0,2-1.52c.65-.55,1.3-1.16,1.93-1.81s1.26-1.36,1.87-2.13a26.87,26.87,0,0,0,4.07-6.81,23.72,23.72,0,0,0,1.61-6.61,34.74,34.74,0,0,0,0-6.53c-.19-2.17-.52-4.36-.84-6.57s-.7-4.65-.9-7.06a40.45,40.45,0,0,1,0-7.38,28,28,0,0,1,1.89-7.59,29.84,29.84,0,0,1,4.69-7.67c.7-.84,1.41-1.61,2.13-2.32s1.45-1.36,2.19-2a27,27,0,0,1,2.24-1.63A25.14,25.14,0,0,1,937-387.9a28.33,28.33,0,0,1,4.73-1.93,35.54,35.54,0,0,1,4.76-1.1c1.59-.26,3.16-.43,4.72-.56s3.09-.2,4.58-.27,2.87-.14,4.27-.25,2.78-.25,4.15-.47a30.46,30.46,0,0,0,4-.91A22.05,22.05,0,0,0,972-395,18.77,18.77,0,0,0,973.8-396a19.34,19.34,0,0,0,1.77-1.32,20.77,20.77,0,0,0,1.71-1.58q.84-.85,1.65-1.86a22.24,22.24,0,0,0,3.53-6,20.36,20.36,0,0,0,1.28-5.91,31.41,31.41,0,0,0-.21-5.89c-.24-2-.6-3.95-1-5.95s-.78-4.22-1-6.4a35.23,35.23,0,0,1-.2-6.67,23.35,23.35,0,0,1,1.51-6.8,24.4,24.4,0,0,1,4.07-6.81c.62-.74,1.25-1.42,1.89-2.05a25.4,25.4,0,0,1,2-1.72,21.54,21.54,0,0,1,2-1.41,20.88,20.88,0,0,1,2.05-1.15,24.61,24.61,0,0,1,4.29-1.62,33.05,33.05,0,0,1,4.34-.88c1.45-.19,2.9-.31,4.33-.38s2.83-.1,4.21-.13,2.63-.06,3.92-.12,2.55-.16,3.8-.32a28.21,28.21,0,0,0,3.66-.73,19.58,19.58,0,0,0,3.48-1.32c.56-.28,1.1-.59,1.64-.93a18.77,18.77,0,0,0,1.59-1.15c.52-.43,1-.89,1.53-1.39s1-1.06,1.47-1.65a18.7,18.7,0,0,0,3.08-5.38,17.33,17.33,0,0,0,1-5.33,28.37,28.37,0,0,0-.36-5.35c-.28-1.79-.67-3.6-1.07-5.42s-.83-3.85-1.12-5.84a31.39,31.39,0,0,1-.38-6.06,20.69,20.69,0,0,1,1.2-6.15,20.47,20.47,0,0,1,3.58-6.09,22.91,22.91,0,0,1,1.68-1.82,20.32,20.32,0,0,1,1.76-1.52,20.91,20.91,0,0,1,1.82-1.24,18.51,18.51,0,0,1,1.86-1,21.23,21.23,0,0,1,3.92-1.37,27.33,27.33,0,0,1,4-.7c1.33-.14,2.67-.21,4-.25s2.62,0,3.89,0,2.43,0,3.62,0,2.36-.09,3.51-.2a23.49,23.49,0,0,0,3.37-.58,16.7,16.7,0,0,0,3.18-1.12,15.56,15.56,0,0,0,1.5-.81,15,15,0,0,0,1.44-1,15.61,15.61,0,0,0,1.38-1.23c.44-.45.88-.94,1.31-1.47A15.72,15.72,0,0,0,1084-533a15.34,15.34,0,0,0,.8-4.84,25.64,25.64,0,0,0-.48-4.89c-.3-1.64-.71-3.29-1.12-5s-.88-3.53-1.21-5.36a28.48,28.48,0,0,1-.5-5.54,17.91,17.91,0,0,1,.94-5.59,17.63,17.63,0,0,1,3.15-5.49,19.82,19.82,0,0,1,1.52-1.62,19.63,19.63,0,0,1,1.59-1.35,18.79,18.79,0,0,1,1.65-1.09,18.08,18.08,0,0,1,1.7-.86,19.14,19.14,0,0,1,3.6-1.17,25.67,25.67,0,0,1,3.69-.55c1.23-.1,2.47-.14,3.69-.13s2.43,0,3.61.06,2.26.07,3.36.07,2.19,0,3.25-.1a23.76,23.76,0,0,0,3.11-.45,14.65,14.65,0,0,0,2.94-1,11.9,11.9,0,0,0,1.37-.71,13.17,13.17,0,0,0,1.31-.89,15.46,15.46,0,0,0,1.25-1.09,15.32,15.32,0,0,0,1.18-1.32,13.63,13.63,0,0,0,2.4-4.36,13.66,13.66,0,0,0,.62-4.42,23.29,23.29,0,0,0-.57-4.49c-.32-1.51-.74-3-1.17-4.59s-.9-3.26-1.26-4.94a26.52,26.52,0,0,1-.61-5.1,15.76,15.76,0,0,1,.74-5.1,15,15,0,0,1,2.79-5,17.55,17.55,0,0,1,1.37-1.46,15.89,15.89,0,0,1,1.45-1.2,15.41,15.41,0,0,1,1.51-1,16,16,0,0,1,1.56-.76,17.18,17.18,0,0,1,3.33-1,24.4,24.4,0,0,1,3.42-.43c1.15-.06,2.3-.07,3.43,0s2.27.08,3.37.14,2.11.11,3.13.13,2.05,0,3,0a20.79,20.79,0,0,0,2.88-.35,13.32,13.32,0,0,0,2.72-.81,11.26,11.26,0,0,0,1.25-.63A10,10,0,0,0,1161-628a11.4,11.4,0,0,0,1.14-1,13.68,13.68,0,0,0,1.07-1.18,11.61,11.61,0,0,0,2.13-4,11.84,11.84,0,0,0,.47-4,21.61,21.61,0,0,0-.63-4.15c-.34-1.4-.77-2.82-1.21-4.25s-.92-3-1.29-4.58a24.36,24.36,0,0,1-.7-4.71,14.41,14.41,0,0,1,.57-4.69,12.91,12.91,0,0,1,2.49-4.53,15.77,15.77,0,0,1,1.24-1.32,12.09,12.09,0,0,1,1.33-1.08,12.61,12.61,0,0,1,1.38-.86,12.57,12.57,0,0,1,1.45-.67,15.81,15.81,0,0,1,3.08-.85,22.68,22.68,0,0,1,3.19-.32c1.07,0,2.15,0,3.21,0s2.12.12,3.15.2,2,.14,2.94.19,1.91.06,2.83,0a18.43,18.43,0,0,0,2.7-.26,12.41,12.41,0,0,0,2.51-.69,10.37,10.37,0,0,0,1.17-.55,9.82,9.82,0,0,0,1.1-.71,10.64,10.64,0,0,0,1-.88,11.47,11.47,0,0,0,1-1.08,10,10,0,0,0,1.9-3.62,10.67,10.67,0,0,0,.35-3.73,21.37,21.37,0,0,0-.69-3.85c-.35-1.3-.79-2.62-1.23-3.95s-.93-2.82-1.32-4.26a23,23,0,0,1-.76-4.38A12.7,12.7,0,0,1,1197-702a11.12,11.12,0,0,1,2.22-4.14,13.13,13.13,0,0,1,1.14-1.2,12,12,0,0,1,1.21-1,10.71,10.71,0,0,1,1.29-.77,11.29,11.29,0,0,1,1.33-.6,14.89,14.89,0,0,1,2.87-.72,21.15,21.15,0,0,1,3-.24c1,0,2,0,3,.09s2,.16,3,.25,1.85.17,2.76.23,1.79.1,2.66.09a18.68,18.68,0,0,0,2.52-.18,12.08,12.08,0,0,0,2.35-.6,8.73,8.73,0,0,0,1.08-.49,7.79,7.79,0,0,0,1-.63,8.07,8.07,0,0,0,1-.8,10.45,10.45,0,0,0,.89-1A8.86,8.86,0,0,0,1232-717a9.81,9.81,0,0,0,.24-3.46,19.73,19.73,0,0,0-.73-3.59c-.36-1.21-.8-2.44-1.24-3.69s-.94-2.63-1.33-4a21.76,21.76,0,0,1-.82-4.07,11.56,11.56,0,0,1,.31-4,9.82,9.82,0,0,1,2-3.81,10.81,10.81,0,0,1,1-1.09,9.2,9.2,0,0,1,1.12-.88,9.43,9.43,0,0,1,1.19-.69A11.27,11.27,0,0,1,1235-746.81Z" transform="translate(673.04 784.13)"/></g></g><g id="Group_4" data-name="Group 4"><g id="Path_3-3" data-name="Path 3-3"><path class="cls-1" d="M1240-766a9.58,9.58,0,0,1-6.56,3.33,35,35,0,0,1-8-.34,35.64,35.64,0,0,0-8.06-.35,10.16,10.16,0,0,0-6.8,3.4,9.08,9.08,0,0,0-2.26,7,30.48,30.48,0,0,0,2,7.57,31.48,31.48,0,0,1,2,7.64,9.57,9.57,0,0,1-2.29,7.28,10.68,10.68,0,0,1-7.06,3.72,36.56,36.56,0,0,1-8.49-.2,37.13,37.13,0,0,0-8.56-.2,11.27,11.27,0,0,0-7.33,3.8,10.15,10.15,0,0,0-2.59,7.6,32.33,32.33,0,0,0,1.89,8.11,33,33,0,0,1,1.91,8.19,10.8,10.8,0,0,1-2.62,7.9,12,12,0,0,1-7.63,4.17,38.59,38.59,0,0,1-9,0,39.35,39.35,0,0,0-9.14,0,12.77,12.77,0,0,0-7.93,4.27,11.51,11.51,0,0,0-3,8.26,34.26,34.26,0,0,0,1.8,8.72,35.41,35.41,0,0,1,1.82,8.81,12.26,12.26,0,0,1-3,8.6,13.49,13.49,0,0,1-8.27,4.7,41.25,41.25,0,0,1-9.68.18,41,41,0,0,0-9.78.18,14.31,14.31,0,0,0-8.62,4.81,13.16,13.16,0,0,0-3.43,9,36.85,36.85,0,0,0,1.68,9.42,37,37,0,0,1,1.7,9.52,14,14,0,0,1-3.5,9.42,15.39,15.39,0,0,1-9,5.3,43.12,43.12,0,0,1-10.4.43,44.65,44.65,0,0,0-10.52.44,16.43,16.43,0,0,0-9.41,5.45,15.2,15.2,0,0,0-4,9.92,38.89,38.89,0,0,0,1.52,10.22,40.14,40.14,0,0,1,1.53,10.33,16.12,16.12,0,0,1-4,10.37,17.65,17.65,0,0,1-9.87,6,46.55,46.55,0,0,1-11.24.74,48,48,0,0,0-11.35.75,18.91,18.91,0,0,0-10.33,6.21,17.6,17.6,0,0,0-4.6,11c-.23,3.7.54,7.41,1.3,11.14A43.43,43.43,0,0,1,1012-502a18.88,18.88,0,0,1-4.72,11.48,20.49,20.49,0,0,1-10.88,6.89,50.89,50.89,0,0,1-12.19,1.12,52,52,0,0,0-12.32,1.14,22,22,0,0,0-11.42,7.11A20.72,20.72,0,0,0,955.1-462c-.37,4.08.33,8.15,1,12.24s1.42,8.22,1,12.39a22.18,22.18,0,0,1-5.52,12.8,24,24,0,0,1-12.07,7.92c-4.3,1.25-8.79,1.43-13.3,1.6s-9.06.36-13.46,1.63a25.76,25.76,0,0,0-12.7,8.2,24.59,24.59,0,0,0-6.3,13.63c-.56,4.53.06,9,.68,13.52s1.24,9.07.68,13.71a26.55,26.55,0,0,1-6.5,14.37,28.52,28.52,0,0,1-13.5,9.18c-4.75,1.52-9.67,1.86-14.61,2.2s-9.93.68-14.8,2.23a30.74,30.74,0,0,0-14.23,9.53,29.64,29.64,0,0,0-7.45,15.39c-.8,5.06-.3,10,.2,15.05s1,10.08.21,15.28a32.1,32.1,0,0,1-7.72,16.28,34.22,34.22,0,0,1-15.21,10.72c-5.29,1.87-10.72,2.42-16.17,3s-11,1.11-16.4,3A37.18,37.18,0,0,0,752.91-237,36.31,36.31,0,0,0,744-219.49c-1.09,5.72-.75,11.3-.41,16.92s.68,11.3-.42,17.18-3.7,12-9.25,18.62a41.88,41.88,0,0,1-17.31,12.65c-6,2.3-12,3.12-18.07,4s-12.23,1.66-18.34,4a45.74,45.74,0,0,0-18.4,13.23c-6.17,7.06-9.22,13.72-10.7,20.2s-1.37,12.85-1.25,19.2.24,12.81-1.27,19.53-4.69,13.85-11.18,21.54a52.2,52.2,0,0,1-19.94,15.11c-6.76,2.86-13.56,4-20.4,5.23s-13.77,2.38-20.72,5.31-14.09,7.63-21.29,15.87S544,5.13,542,12.61s-2.19,14.78-2.38,22.06-.39,14.69-2.43,22.48-6,16.11-13.7,25.25S508,97.11,500.26,100.68s-15.53,5.26-23.31,6.93-15.7,3.37-23.73,7.06-16.36,9.46-25,19.31-13.43,19.12-16.1,27.89-3.32,17.25-3.95,25.72-1.27,17.1-4,26.25-7.72,19.06-17,30.09-18.58,17.93-27.61,22.48-18,6.92-27,9.25-18.16,4.72-27.58,9.44S285.57,297,275.07,309s-16.6,23.16-20.22,33.61-4.9,20.5-6.16,30.52-2.54,20.26-6.3,31.22-10.12,23-21.58,36.53c-11.61,13.76-22.64,22.29-33.39,28.2s-21.36,9.22-32,12.5-21.4,6.63-32.66,12.77-23.3,15.29-36.36,30.21c-13.25,15.14-21,28.67-26,41.41s-7.19,24.88-9.37,37-4.42,24.52-9.61,37.95-13.52,28.33-28,45.43c-14.66,17.36-28.27,28.4-41.37,36.23s-25.9,12.53-38.66,17.19-25.81,9.41-39.62,17.61-28.81,20.13-45.5,39.2C-168.57,816-178.88,833-185.83,849c-7,16.13-10.6,31-14.2,46.11s-7.3,30.52-14.61,47.46c-7.4,17.13-18.55,36-37.31,58.19-19.1,22.62-36.42,37.32-52.88,48-16.65,10.83-32.34,17.52-48.17,24.27s-32.07,13.68-49.54,25c-17.66,11.41-36.82,27.39-58.9,52.62-22.5,25.71-36.7,48-46.71,68.74-10.15,21-16,40.15-21.82,59.54-5.93,19.6-11.92,39.39-22.56,61.57-10.77,22.46-26.38,47.48-51.74,77.51" transform="translate(673.04 784.13)"/><path class="cls-2" d="M1213.44-764.46a14.64,14.64,0,0,1,2.72-.59,22.17,22.17,0,0,1,2.83-.13c1,0,1.92.08,2.87.17s1.89.2,2.81.31,1.76.21,2.62.29,1.71.14,2.53.15a17.13,17.13,0,0,0,2.4-.1,10.92,10.92,0,0,0,2.23-.48,9,9,0,0,0,1-.41,7.18,7.18,0,0,0,1-.56,6.68,6.68,0,0,0,.91-.7,8.78,8.78,0,0,0,.85-.87l3.51,2.7a11.07,11.07,0,0,1-1,1,9.6,9.6,0,0,1-1.09.84,8.88,8.88,0,0,1-1.16.66,10.77,10.77,0,0,1-1.22.5,13.15,13.15,0,0,1-2.66.59,21.37,21.37,0,0,1-2.79.14c-.94,0-1.89-.08-2.84-.17s-1.89-.19-2.81-.3-1.77-.2-2.63-.28-1.72-.14-2.55-.16a17.75,17.75,0,0,0-2.44.11,11.56,11.56,0,0,0-2.28.49,9.57,9.57,0,0,0-1,.42,10,10,0,0,0-1,.57,8.8,8.8,0,0,0-1,.72,9.47,9.47,0,0,0-.89.9,8.18,8.18,0,0,0-1.74,3.11,9,9,0,0,0-.3,3.31,17.81,17.81,0,0,0,.68,3.48c.34,1.19.76,2.4,1.19,3.63s.91,2.6,1.29,3.94a21.58,21.58,0,0,1,.78,4.08,11.84,11.84,0,0,1-.35,4.06,10.48,10.48,0,0,1-2.11,3.92,10.78,10.78,0,0,1-1.09,1.14,12.65,12.65,0,0,1-1.18.93,9.92,9.92,0,0,1-1.25.73,11,11,0,0,1-1.32.57,14.26,14.26,0,0,1-2.83.69,21,21,0,0,1-3,.2c-1,0-2,0-3-.11s-2-.17-3-.27-1.87-.18-2.79-.25-1.82-.11-2.71-.11a19.9,19.9,0,0,0-2.59.16,13.15,13.15,0,0,0-2.44.58,11.44,11.44,0,0,0-1.14.48,11.68,11.68,0,0,0-1.08.63,9.8,9.8,0,0,0-1,.8,10.2,10.2,0,0,0-1,1,9.32,9.32,0,0,0-1.93,3.38,10,10,0,0,0-.4,3.57,18.54,18.54,0,0,0,.63,3.73c.33,1.28.75,2.57,1.17,3.89s.91,2.78,1.27,4.22a22.54,22.54,0,0,1,.73,4.37,12.87,12.87,0,0,1-.49,4.39,11.68,11.68,0,0,1-2.34,4.27,11,11,0,0,1-1.2,1.25,12.28,12.28,0,0,1-1.28,1,11.86,11.86,0,0,1-1.35.82,12.86,12.86,0,0,1-1.42.64,16.61,16.61,0,0,1-3,.81,23.94,23.94,0,0,1-3.18.29q-1.6,0-3.21-.06c-1.08,0-2.14-.14-3.18-.22s-2-.16-3-.21-2-.08-2.89-.06a20.84,20.84,0,0,0-2.77.23,14.4,14.4,0,0,0-2.62.68,11.26,11.26,0,0,0-1.23.55,10,10,0,0,0-1.17.7,10.25,10.25,0,0,0-1.13.89,10.86,10.86,0,0,0-1.06,1.08,10.79,10.79,0,0,0-2.16,3.69,11.11,11.11,0,0,0-.53,3.87,21,21,0,0,0,.57,4c.32,1.37.73,2.76,1.15,4.17s.89,3,1.25,4.54a25.07,25.07,0,0,1,.65,4.71,14.17,14.17,0,0,1-.64,4.76,13.7,13.7,0,0,1-2.62,4.68,14.45,14.45,0,0,1-1.32,1.38,13.33,13.33,0,0,1-1.39,1.14,14.34,14.34,0,0,1-1.47.92,13.49,13.49,0,0,1-1.54.73,17.94,17.94,0,0,1-3.27.94,25.79,25.79,0,0,1-3.41.39c-1.15,0-2.3,0-3.44,0s-2.28-.1-3.39-.16-2.13-.12-3.18-.16-2.08,0-3.09,0a22.12,22.12,0,0,0-3,.32,15.25,15.25,0,0,0-2.83.8,12.26,12.26,0,0,0-1.33.62,11.64,11.64,0,0,0-1.28.79,12.28,12.28,0,0,0-1.23,1,14.83,14.83,0,0,0-1.17,1.2,12.47,12.47,0,0,0-2.42,4.06,12.67,12.67,0,0,0-.68,4.21,22,22,0,0,0,.5,4.35c.3,1.47.7,3,1.11,4.49s.87,3.22,1.2,4.89a25.81,25.81,0,0,1,.57,5.11,16.15,16.15,0,0,1-.82,5.18,16.07,16.07,0,0,1-2.95,5.15,19.3,19.3,0,0,1-1.45,1.53,17.89,17.89,0,0,1-1.53,1.28,17.47,17.47,0,0,1-1.61,1,16.06,16.06,0,0,1-1.66.83,18.91,18.91,0,0,1-3.55,1.1,26.77,26.77,0,0,1-3.67.51c-1.23.09-2.47.11-3.69.1s-2.45-.05-3.64-.09-2.29-.09-3.41-.1-2.23,0-3.32.08a22.72,22.72,0,0,0-3.21.42,16.4,16.4,0,0,0-3.06.94,13.64,13.64,0,0,0-1.44.7,12.31,12.31,0,0,0-1.4.9,13.55,13.55,0,0,0-1.35,1.1,14.91,14.91,0,0,0-1.3,1.33,14.63,14.63,0,0,0-2.73,4.48,14.5,14.5,0,0,0-.86,4.6,24,24,0,0,0,.41,4.73c.28,1.6.66,3.22,1.06,4.87s.83,3.49,1.14,5.3a28.49,28.49,0,0,1,.45,5.55,18.15,18.15,0,0,1-1,5.68,18.63,18.63,0,0,1-3.33,5.69,20.35,20.35,0,0,1-1.61,1.71,20,20,0,0,1-1.69,1.43,17.44,17.44,0,0,1-1.76,1.18c-.6.35-1.21.66-1.82.94a21.13,21.13,0,0,1-3.86,1.3,28.32,28.32,0,0,1-4,.65c-1.33.13-2.66.19-4,.21s-2.63,0-3.92,0-2.46,0-3.67,0-2.41.06-3.58.17a26.81,26.81,0,0,0-3.48.54,19.14,19.14,0,0,0-3.33,1.11,15.73,15.73,0,0,0-1.58.81,14.53,14.53,0,0,0-1.54,1,15.54,15.54,0,0,0-1.49,1.24,18.87,18.87,0,0,0-1.45,1.5,16.92,16.92,0,0,0-3.09,5,15.86,15.86,0,0,0-1.07,5.05,25.69,25.69,0,0,0,.28,5.16c.25,1.75.62,3.51,1,5.31s.79,3.8,1.06,5.78a30.59,30.59,0,0,1,.31,6.07,20.79,20.79,0,0,1-1.31,6.25,21.68,21.68,0,0,1-3.79,6.33,23.87,23.87,0,0,1-1.79,1.93,23,23,0,0,1-1.88,1.61,19.8,19.8,0,0,1-1.94,1.34,20.65,20.65,0,0,1-2,1.09,24.06,24.06,0,0,1-4.22,1.54,32.23,32.23,0,0,1-4.32.82c-1.44.18-2.89.28-4.32.34s-2.86.08-4.25.09-2.66,0-4,.09-2.61.14-3.89.29a26.77,26.77,0,0,0-3.78.7,20.65,20.65,0,0,0-3.65,1.3q-.89.42-1.74.93a20.45,20.45,0,0,0-1.7,1.16,19.51,19.51,0,0,0-1.67,1.41c-.54.51-1.08,1.07-1.61,1.68a20.14,20.14,0,0,0-3.52,5.55,18.62,18.62,0,0,0-1.35,5.59,29.21,29.21,0,0,0,.13,5.68c.21,1.91.55,3.85.89,5.81s.73,4.16,1,6.33a34.56,34.56,0,0,1,.12,6.68,24,24,0,0,1-1.63,6.93,26.07,26.07,0,0,1-4.34,7.1,28.44,28.44,0,0,1-2,2.18,27.25,27.25,0,0,1-2.09,1.84,25.08,25.08,0,0,1-2.16,1.53c-.73.47-1.47.88-2.21,1.26A27.7,27.7,0,0,1,941-414a37.76,37.76,0,0,1-4.73,1c-1.58.24-3.16.39-4.72.5s-3.11.17-4.62.23-2.9.12-4.33.22-2.85.23-4.25.43a32.42,32.42,0,0,0-4.14.88,24.78,24.78,0,0,0-4,1.55c-.65.33-1.29.69-1.93,1.09a22.57,22.57,0,0,0-1.9,1.33,22.59,22.59,0,0,0-1.86,1.6c-.62.59-1.22,1.22-1.83,1.91a24.43,24.43,0,0,0-4,6.25,21.57,21.57,0,0,0-1.68,6.23,32.92,32.92,0,0,0-.06,6.28c.16,2.11.45,4.24.75,6.41s.64,4.59.81,7a39.09,39.09,0,0,1-.11,7.4,28,28,0,0,1-2,7.74,31.2,31.2,0,0,1-5,8c-.74.89-1.51,1.72-2.28,2.48s-1.56,1.46-2.36,2.11-1.6,1.23-2.42,1.77a28.5,28.5,0,0,1-2.46,1.47,32.09,32.09,0,0,1-5.15,2.17,41.17,41.17,0,0,1-5.2,1.3c-1.74.32-3.48.54-5.19.71s-3.41.29-5.07.41-3.18.22-4.75.37-3.12.35-4.66.62a36.36,36.36,0,0,0-4.58,1.11,27.93,27.93,0,0,0-4.46,1.86q-1.1.57-2.16,1.26c-.72.47-1.43,1-2.14,1.54s-1.4,1.18-2.1,1.85-1.39,1.4-2.07,2.18a29.77,29.77,0,0,0-4.68,7.09,25.73,25.73,0,0,0-2.08,7,37.24,37.24,0,0,0-.32,7c.09,2.35.33,4.72.58,7.13s.51,5.1.61,7.77a44.6,44.6,0,0,1-.42,8.26,33.73,33.73,0,0,1-2.54,8.72,38.8,38.8,0,0,1-5.81,9.12c-.86,1-1.73,2-2.62,2.85s-1.77,1.69-2.67,2.44-1.82,1.44-2.73,2.07-1.85,1.2-2.78,1.72a37.47,37.47,0,0,1-5.74,2.61,44.79,44.79,0,0,1-5.79,1.63c-1.92.42-3.84.73-5.73,1s-3.77.44-5.6.63-3.52.36-5.25.58-3.46.49-5.17.85a40.34,40.34,0,0,0-5.08,1.4,31.66,31.66,0,0,0-5,2.24c-.81.45-1.63.94-2.43,1.49s-1.62,1.15-2.42,1.8-1.6,1.37-2.4,2.14-1.59,1.62-2.38,2.53a36.66,36.66,0,0,0-5.46,8.11,30.9,30.9,0,0,0-2.6,7.93,42.76,42.76,0,0,0-.65,7.88c0,2.64.16,5.29.33,8s.36,5.72.35,8.72a52.05,52.05,0,0,1-.81,9.32,40.77,40.77,0,0,1-3.19,9.9,47.88,47.88,0,0,1-6.82,10.5q-1.5,1.77-3,3.31c-1,1-2,2-3.07,2.85s-2.07,1.69-3.11,2.43-2.1,1.42-3.15,2a45.34,45.34,0,0,1-6.48,3.15,52.89,52.89,0,0,1-6.49,2.06c-2.15.54-4.29,1-6.4,1.31s-4.2.64-6.24.92-3.91.54-5.85.85-3.86.69-5.77,1.16a47,47,0,0,0-5.72,1.77,39.33,39.33,0,0,0-5.65,2.71c-.93.54-1.85,1.13-2.78,1.78s-1.84,1.36-2.77,2.13-1.84,1.61-2.76,2.51-1.84,1.89-2.76,3a46.2,46.2,0,0,0-6.45,9.39,38,38,0,0,0-3.25,9.09,49.86,49.86,0,0,0-1.1,9c-.12,3-.06,6,0,9.06s.13,6.47,0,9.88a61.18,61.18,0,0,1-1.33,10.62,50,50,0,0,1-4,11.38,60.19,60.19,0,0,1-8.1,12.21q-1.75,2.09-3.52,3.89c-1.19,1.21-2.37,2.33-3.57,3.37s-2.39,2-3.59,2.9-2.4,1.7-3.61,2.46A54.43,54.43,0,0,1,619-33.33a62.28,62.28,0,0,1-7.35,2.61c-2.44.71-4.85,1.27-7.23,1.76s-4.72.89-7,1.29-4.41.78-6.59,1.22-4.36.94-6.52,1.55a56.85,56.85,0,0,0-6.49,2.26,48.38,48.38,0,0,0-6.47,3.32c-1.07.66-2.13,1.37-3.2,2.15s-2.13,1.62-3.21,2.54-2.14,1.92-3.22,3-2.16,2.23-3.25,3.48a59.5,59.5,0,0,0-7.71,11,47.85,47.85,0,0,0-4.11,10.54,61,61,0,0,0-1.68,10.31c-.29,3.44-.37,6.88-.46,10.38s-.18,7.42-.53,11.34a73.48,73.48,0,0,1-2,12.25,62.82,62.82,0,0,1-5.1,13.26,78.39,78.39,0,0,1-9.75,14.4c-1.39,1.65-2.78,3.19-4.17,4.64s-2.79,2.78-4.19,4-2.8,2.42-4.2,3.5-2.8,2.07-4.2,3a67.4,67.4,0,0,1-8.55,4.77,75.6,75.6,0,0,1-8.43,3.34c-2.79.92-5.54,1.68-8.26,2.35s-5.38,1.24-8,1.81-5,1.09-7.52,1.69-5,1.28-7.46,2.09a68.12,68.12,0,0,0-7.46,2.89,60.44,60.44,0,0,0-7.51,4.14c-1.24.8-2.48,1.68-3.73,2.62s-2.51,2-3.78,3.09-2.54,2.31-3.82,3.6-2.57,2.68-3.87,4.18a77.48,77.48,0,0,0-9.35,13.1,62,62,0,0,0-5.26,12.4,76.4,76.4,0,0,0-2.49,12.05c-.52,4-.81,8-1.1,12.07-.31,4.24-.62,8.64-1.23,13.21a92.92,92.92,0,0,1-3,14.34,80.88,80.88,0,0,1-6.55,15.69A103.22,103.22,0,0,1,391,247.18c-1.67,2-3.34,3.86-5,5.61s-3.35,3.39-5,4.92-3.33,3-5,4.28-3.32,2.56-5,3.71a87.29,87.29,0,0,1-10,6,95.22,95.22,0,0,1-9.83,4.31c-3.24,1.22-6.44,2.24-9.57,3.15s-6.24,1.73-9.27,2.52-5.81,1.52-8.7,2.36-5.77,1.74-8.66,2.81a85.88,85.88,0,0,0-8.72,3.76,76.58,76.58,0,0,0-8.85,5.23c-1.47,1-3,2.09-4.45,3.26s-3,2.44-4.51,3.81-3.06,2.84-4.6,4.42-3.12,3.28-4.71,5.1a104,104,0,0,0-11.55,15.88,81.86,81.86,0,0,0-6.81,14.85,97.51,97.51,0,0,0-3.61,14.32c-.85,4.74-1.43,9.48-2,14.29-.62,5-1.26,10.22-2.25,15.65a118,118,0,0,1-4.37,17.11,108.63,108.63,0,0,1-8.55,18.9,139.77,139.77,0,0,1-14.87,21.1c-2.06,2.46-4.11,4.76-6.15,6.93s-4.09,4.2-6.11,6.11-4.05,3.69-6.05,5.36-4,3.22-6,4.67a113.33,113.33,0,0,1-12,7.68A119.76,119.76,0,0,1,177.08,481c-3.84,1.63-7.61,3-11.31,4.28s-7.34,2.4-10.91,3.51S148,490.89,144.6,492s-6.82,2.4-10.25,3.83a111.26,111.26,0,0,0-10.39,5,102.53,102.53,0,0,0-10.65,6.73q-2.67,1.92-5.4,4.14t-5.52,4.81c-1.86,1.72-3.75,3.56-5.66,5.54s-3.86,4.09-5.83,6.35a145.82,145.82,0,0,0-14.58,19.66,111.27,111.27,0,0,0-9,18.2,129.2,129.2,0,0,0-5.24,17.38c-1.33,5.75-2.34,11.47-3.38,17.29-1.08,6.07-2.2,12.36-3.74,19a160.72,160.72,0,0,1-6.34,20.86,152.51,152.51,0,0,1-11.37,23.32,201.07,201.07,0,0,1-19,26.41q-3.9,4.63-7.74,8.75T2.9,707c-2.53,2.45-5,4.73-7.52,6.88s-4.95,4.15-7.39,6A159.93,159.93,0,0,1-26.73,730c-4.83,2.92-9.56,5.42-14.19,7.63s-9.21,4.15-13.67,5.91-8.86,3.39-13.16,5c-4.14,1.52-8.26,3-12.38,4.65s-8.25,3.36-12.42,5.32-8.39,4.17-12.68,6.73a141,141,0,0,0-13.15,8.88c-2.22,1.68-4.45,3.48-6.73,5.41s-4.58,4-6.92,6.22-4.74,4.6-7.16,7.13-4.91,5.26-7.43,8.15a210.22,210.22,0,0,0-18.9,25,159.65,159.65,0,0,0-12.18,22.9,179.2,179.2,0,0,0-7.65,21.7c-2.06,7.15-3.74,14.25-5.45,21.49-1.78,7.54-3.63,15.37-6,23.6a224.16,224.16,0,0,1-9.29,26.17,219.71,219.71,0,0,1-15.54,29.62,297.75,297.75,0,0,1-25,34.07q-5.09,6-10,11.43t-9.83,10.21q-4.87,4.83-9.63,9.09t-9.42,8a227.94,227.94,0,0,1-18.6,13.62c-6.08,4-12,7.45-17.79,10.55s-11.47,5.86-17,8.39-11,4.88-16.35,7.17c-5.14,2.21-10.25,4.4-15.38,6.74s-10.3,4.81-15.52,7.58-10.55,5.84-16,9.36A206.52,206.52,0,0,0-419,1119.9c-2.84,2.27-5.73,4.69-8.66,7.29s-5.94,5.37-9,8.33-6.19,6.13-9.37,9.51-6.46,7-9.8,10.81a321.49,321.49,0,0,0-25.39,33,243.56,243.56,0,0,0-17,29.87,266.64,266.64,0,0,0-11.43,28c-3.2,9.22-5.94,18.36-8.73,27.67-2.91,9.71-5.94,19.81-9.66,30.46a332.54,332.54,0,0,1-14,34.08A339.36,339.36,0,0,1-564,1378a465,465,0,0,1-34.18,45.72l-12.18-11.47a393.21,393.21,0,0,0,28.75-38,277.77,277.77,0,0,0,18.67-32.8,288.09,288.09,0,0,0,12.2-29.65c3.36-9.54,6.21-18.89,9.09-28.32,3-9.74,6-19.76,9.75-30.21a316.37,316.37,0,0,1,13.58-32.61,300.07,300.07,0,0,1,20.63-35.75,379.87,379.87,0,0,1,30.59-39.48q6-6.81,11.73-12.82t11.24-11.27q5.49-5.27,10.78-9.88t10.36-8.63c6.89-5.47,13.53-10.19,20-14.34s12.57-7.69,18.56-10.86,11.76-5.91,17.38-8.45,11.06-4.84,16.37-7.1c5.1-2.16,10.13-4.29,15.15-6.55s10-4.62,15-7.25,10.05-5.53,15.16-8.84a182.34,182.34,0,0,0,15.54-11.24q3.89-3.12,7.86-6.67t8-7.54q4.05-4,8.23-8.5t8.44-9.54a248.29,248.29,0,0,0,21-28.32,179.8,179.8,0,0,0,13.18-24.84A193.06,193.06,0,0,0-215,920c2.15-7.37,3.9-14.61,5.66-21.92,1.83-7.56,3.71-15.33,6.1-23.43a211.88,211.88,0,0,1,9.11-25.18,197.06,197.06,0,0,1,14.73-27.4,251.32,251.32,0,0,1,22.78-30q4.51-5.14,8.9-9.66c2.9-3,5.77-5.82,8.59-8.46s5.58-5.08,8.31-7.38,5.4-4.41,8-6.4a171.86,171.86,0,0,1,15.67-10.52c5-3,10-5.56,14.74-7.81s9.41-4.18,13.93-5.95,8.9-3.35,13.18-4.91c4.11-1.49,8.17-3,12.21-4.53s8.05-3.23,12.08-5.12A135,135,0,0,0-28.83,715a129.45,129.45,0,0,0,12.3-8.32c2-1.56,4.1-3.22,6.18-5S-6.19,698-4.08,696s4.23-4.18,6.38-6.48,4.32-4.72,6.52-7.31a169,169,0,0,0,16-21.95,124,124,0,0,0,9.64-19.55A136.2,136.2,0,0,0,40,622.56c1.39-5.9,2.45-11.71,3.53-17.59,1.11-6.08,2.25-12.33,3.81-18.83A148.29,148.29,0,0,1,53.54,566a137.37,137.37,0,0,1,10.88-21.75A172.14,172.14,0,0,1,82,520.67q3.52-4,7-7.54t6.8-6.57c2.24-2,4.45-3.93,6.63-5.7s4.33-3.4,6.46-4.92a124.47,124.47,0,0,1,12.7-8,127.68,127.68,0,0,1,12.08-5.78c3.92-1.64,7.75-3,11.5-4.3s7.37-2.37,10.93-3.47c3.41-1.05,6.79-2.08,10.14-3.2s6.67-2.32,10-3.7a103.52,103.52,0,0,0,10-4.75,93.16,93.16,0,0,0,10.05-6.35q2.49-1.8,5-3.87t5.05-4.45c1.7-1.59,3.4-3.28,5.12-5.09s3.43-3.73,5.17-5.79a118.93,118.93,0,0,0,12.52-17.53,89.13,89.13,0,0,0,7.24-15.84A102.78,102.78,0,0,0,240.13,389c.89-4.85,1.5-9.65,2.12-14.51.64-5,1.3-10.19,2.3-15.55a113.24,113.24,0,0,1,4.34-16.59,99.48,99.48,0,0,1,8.24-17.75,123,123,0,0,1,13.91-19c1.89-2.16,3.77-4.17,5.63-6.05s3.7-3.61,5.53-5.24,3.63-3.12,5.42-4.52,3.57-2.68,5.33-3.87a92.73,92.73,0,0,1,10.55-6.19,100.11,100.11,0,0,1,10.15-4.39c3.3-1.22,6.54-2.24,9.71-3.15s6.26-1.71,9.29-2.49,5.76-1.49,8.61-2.3,5.66-1.68,8.47-2.71a81.23,81.23,0,0,0,8.41-3.61,71.14,71.14,0,0,0,8.4-5q2.07-1.42,4.15-3.07t4.16-3.56c1.4-1.27,2.79-2.64,4.2-4.1s2.8-3,4.22-4.68a88.33,88.33,0,0,0,10-14.35,66.57,66.57,0,0,0,5.55-13.14,77.43,77.43,0,0,0,2.61-12.45c.55-4.08.86-8.14,1.18-12.24s.65-8.61,1.28-13.13a88.35,88.35,0,0,1,3-13.94,75.16,75.16,0,0,1,6.36-14.82,92.1,92.1,0,0,1,11.26-15.71c1.56-1.77,3.1-3.41,4.64-4.95s3.07-3,4.59-4.27,3-2.54,4.54-3.66,3-2.16,4.47-3.12a72.58,72.58,0,0,1,9-4.9,80.67,80.67,0,0,1,8.68-3.38c2.84-.93,5.63-1.68,8.37-2.34s5.41-1.24,8-1.79,5-1.06,7.45-1.65,4.89-1.24,7.31-2A64.62,64.62,0,0,0,498.8,96,54.64,54.64,0,0,0,506,92.08q1.76-1.14,3.51-2.49t3.51-2.9c1.17-1,2.33-2.16,3.5-3.36s2.34-2.49,3.51-3.87a66.76,66.76,0,0,0,8.22-12,51.32,51.32,0,0,0,4.32-11.11,63.8,63.8,0,0,0,1.77-10.62c.3-3.5.4-7,.5-10.51s.21-7.41.57-11.28a71.13,71.13,0,0,1,2-11.94,58.25,58.25,0,0,1,5-12.58,70,70,0,0,1,9.28-13.2c1.29-1.48,2.59-2.85,3.89-4.13s2.59-2.45,3.88-3.54,2.57-2.09,3.85-3,2.56-1.77,3.83-2.54a58.17,58.17,0,0,1,7.72-3.95,65.42,65.42,0,0,1,7.55-2.64c2.48-.71,4.92-1.27,7.32-1.75s4.75-.88,7-1.28,4.38-.75,6.54-1.18,4.29-.91,6.4-1.5a54,54,0,0,0,6.3-2.18,44.29,44.29,0,0,0,6.19-3.18c1-.63,2-1.3,3-2s2-1.54,3-2.41,2-1.8,3-2.81,2-2.09,3-3.25A51.43,51.43,0,0,0,641-65.29a40.89,40.89,0,0,0,3.4-9.54A51.43,51.43,0,0,0,645.53-84c.14-3,.09-6.08,0-9.15s-.11-6.46,0-9.83A59.75,59.75,0,0,1,647-113.39a46.46,46.46,0,0,1,3.94-10.84,54.39,54.39,0,0,1,7.76-11.26c1.1-1.26,2.2-2.42,3.31-3.5s2.21-2.06,3.32-3,2.22-1.75,3.33-2.52,2.22-1.47,3.33-2.11a46.45,46.45,0,0,1,6.75-3.22,56.89,56.89,0,0,1,6.64-2.08c2.19-.54,4.36-.95,6.49-1.3s4.21-.63,6.25-.9,3.89-.52,5.81-.83,3.8-.67,5.68-1.12a45,45,0,0,0,5.55-1.72,36.34,36.34,0,0,0,5.43-2.6c.89-.52,1.76-1.08,2.63-1.7s1.74-1.29,2.6-2,1.72-1.52,2.57-2.38,1.7-1.78,2.54-2.77a40.16,40.16,0,0,0,5.75-8.71,33.05,33.05,0,0,0,2.7-8.3,44.26,44.26,0,0,0,.7-8.08c0-2.68-.15-5.36-.31-8.07s-.34-5.7-.32-8.68a50.47,50.47,0,0,1,.84-9.11,37.68,37.68,0,0,1,3.15-9.46,43.47,43.47,0,0,1,6.56-9.73c.95-1.08,1.9-2.08,2.86-3s1.92-1.76,2.88-2.54,1.94-1.48,2.91-2.13,2-1.24,2.92-1.77a40,40,0,0,1,6-2.66,49.4,49.4,0,0,1,5.92-1.64c2-.42,3.89-.72,5.8-1s3.78-.43,5.61-.61,3.5-.35,5.22-.57,3.41-.47,5.09-.82a39.48,39.48,0,0,0,5-1.36,30.65,30.65,0,0,0,4.82-2.15c.78-.43,1.55-.91,2.32-1.43s1.53-1.1,2.28-1.72,1.5-1.3,2.24-2,1.47-1.52,2.2-2.38a32.75,32.75,0,0,0,4.9-7.58A27.45,27.45,0,0,0,821-282a39.21,39.21,0,0,0,.35-7.17c-.09-2.39-.32-4.78-.56-7.19s-.5-5.09-.59-7.74a42.74,42.74,0,0,1,.45-8.09,31,31,0,0,1,2.52-8.36,35.11,35.11,0,0,1,5.62-8.49c.82-.94,1.65-1.8,2.49-2.59a31.39,31.39,0,0,1,2.53-2.19c.85-.67,1.7-1.28,2.56-1.83s1.73-1.05,2.59-1.5a34,34,0,0,1,5.33-2.21,43.51,43.51,0,0,1,5.33-1.3c1.76-.32,3.51-.54,5.24-.7s3.42-.28,5.07-.4,3.17-.21,4.72-.36,3.09-.33,4.61-.6a34.05,34.05,0,0,0,4.46-1.07,26.71,26.71,0,0,0,4.31-1.79c.7-.37,1.39-.77,2.07-1.22a24.64,24.64,0,0,0,2-1.48c.67-.54,1.33-1.12,2-1.76s1.29-1.33,1.92-2.07a27,27,0,0,0,4.22-6.65,23.2,23.2,0,0,0,1.73-6.48,33.59,33.59,0,0,0,.08-6.42c-.15-2.14-.44-4.29-.74-6.47s-.62-4.58-.78-7a36.74,36.74,0,0,1,.14-7.25,26.26,26.26,0,0,1,2-7.44,29,29,0,0,1,4.85-7.49c.72-.82,1.45-1.57,2.19-2.26a27.71,27.71,0,0,1,2.24-1.91c.75-.57,1.52-1.1,2.28-1.57s1.54-.9,2.32-1.29a28.84,28.84,0,0,1,4.8-1.84,36.23,36.23,0,0,1,4.83-1c1.6-.24,3.19-.39,4.76-.49s3.12-.17,4.63-.23,2.89-.11,4.31-.2,2.82-.22,4.19-.42a30.8,30.8,0,0,0,4.06-.85,23.11,23.11,0,0,0,3.89-1.5c.62-.32,1.24-.66,1.85-1a19.16,19.16,0,0,0,1.8-1.28,20.37,20.37,0,0,0,1.75-1.53c.58-.56,1.14-1.17,1.7-1.82a22.3,22.3,0,0,0,3.66-5.89,19.54,19.54,0,0,0,1.39-5.8,29.61,29.61,0,0,0-.12-5.8c-.21-1.93-.54-3.88-.88-5.86s-.71-4.15-.93-6.3a33.37,33.37,0,0,1-.09-6.56,22.43,22.43,0,0,1,1.63-6.67,24.14,24.14,0,0,1,4.23-6.66,26.39,26.39,0,0,1,1.94-2,23.45,23.45,0,0,1,2-1.66,21.51,21.51,0,0,1,2-1.37,21,21,0,0,1,2.09-1.11,25.15,25.15,0,0,1,4.35-1.55,34,34,0,0,1,4.4-.82c1.47-.18,2.93-.28,4.37-.33s2.87-.08,4.26-.09,2.65,0,4-.08,2.58-.13,3.84-.28a28.51,28.51,0,0,0,3.71-.67,20.78,20.78,0,0,0,3.54-1.27c.56-.27,1.12-.57,1.67-.9a18.76,18.76,0,0,0,1.62-1.12,17.59,17.59,0,0,0,1.57-1.35,19.58,19.58,0,0,0,1.51-1.61,18.44,18.44,0,0,0,3.2-5.25,16.9,16.9,0,0,0,1.11-5.24,26.65,26.65,0,0,0-.28-5.26c-.24-1.77-.61-3.54-1-5.35s-.77-3.79-1-5.75a30.35,30.35,0,0,1-.28-6,19.58,19.58,0,0,1,1.32-6,20.46,20.46,0,0,1,3.7-6,24.35,24.35,0,0,1,1.74-1.77,19.89,19.89,0,0,1,1.79-1.47,20.93,20.93,0,0,1,1.86-1.2,18.8,18.8,0,0,1,1.9-1,22.5,22.5,0,0,1,4-1.31,29.54,29.54,0,0,1,4-.65c1.35-.13,2.7-.18,4-.2s2.64,0,3.93,0,2.45,0,3.65,0,2.38-.06,3.55-.16a25.6,25.6,0,0,0,3.4-.53,18.63,18.63,0,0,0,3.24-1.07,14.67,14.67,0,0,0,1.52-.79,13.41,13.41,0,0,0,1.47-1,15.34,15.34,0,0,0,1.41-1.19c.46-.44.91-.92,1.35-1.43a15.56,15.56,0,0,0,2.82-4.73,14.88,14.88,0,0,0,.89-4.75,24.62,24.62,0,0,0-.41-4.81c-.27-1.62-.66-3.25-1-4.91s-.82-3.48-1.12-5.28a27.69,27.69,0,0,1-.43-5.46,17.38,17.38,0,0,1,1-5.48,17.05,17.05,0,0,1,3.28-5.37,18,18,0,0,1,1.55-1.59,19.48,19.48,0,0,1,1.63-1.31,16.69,16.69,0,0,1,1.68-1,17.36,17.36,0,0,1,1.74-.84,19.17,19.17,0,0,1,3.65-1.11,26.11,26.11,0,0,1,3.73-.5c1.25-.09,2.5-.11,3.73-.1s2.45.06,3.65.1,2.27.09,3.39.1,2.21,0,3.28-.07a21.52,21.52,0,0,0,3.15-.41,15.54,15.54,0,0,0,3-.91,12.74,12.74,0,0,0,1.39-.68,13.91,13.91,0,0,0,1.34-.87,13.82,13.82,0,0,0,1.28-1.06,16.61,16.61,0,0,0,1.22-1.28,13.44,13.44,0,0,0,2.49-4.27,13.06,13.06,0,0,0,.7-4.34,22.53,22.53,0,0,0-.5-4.43c-.3-1.49-.7-3-1.11-4.52s-.85-3.22-1.18-4.88a24.88,24.88,0,0,1-.53-5,15.1,15.1,0,0,1,.83-5,14.84,14.84,0,0,1,2.9-4.87A18.93,18.93,0,0,1,1104-642a14.6,14.6,0,0,1,1.48-1.17,13.7,13.7,0,0,1,1.54-.93,14.19,14.19,0,0,1,1.59-.73,17.64,17.64,0,0,1,3.37-1,26.89,26.89,0,0,1,3.47-.39c1.15,0,2.32,0,3.47,0s2.28.1,3.39.17,2.13.12,3.17.16,2.06,0,3.06,0a20.06,20.06,0,0,0,2.92-.31,14.18,14.18,0,0,0,2.75-.77c.44-.18.86-.38,1.28-.6a11.43,11.43,0,0,0,1.23-.77,12.8,12.8,0,0,0,1.17-1,13.6,13.6,0,0,0,1.1-1.16,11.58,11.58,0,0,0,2.22-3.88,11.53,11.53,0,0,0,.54-4,20.13,20.13,0,0,0-.57-4.09c-.32-1.38-.73-2.78-1.15-4.2s-.88-3-1.23-4.52a23.53,23.53,0,0,1-.62-4.64,13.76,13.76,0,0,1,.65-4.61,12.9,12.9,0,0,1,2.59-4.44,14.05,14.05,0,0,1,1.28-1.28,12.94,12.94,0,0,1,1.35-1,12.8,12.8,0,0,1,1.42-.83,13.69,13.69,0,0,1,1.47-.65,17.67,17.67,0,0,1,3.12-.81,25,25,0,0,1,3.23-.28c1.08,0,2.17,0,3.24.06s2.14.15,3.18.23,2,.16,3,.21,1.93.09,2.87.07a20.09,20.09,0,0,0,2.72-.23,13,13,0,0,0,2.56-.66,10.38,10.38,0,0,0,1.18-.53,9.49,9.49,0,0,0,1.13-.69,10.49,10.49,0,0,0,1.07-.85,12.64,12.64,0,0,0,1-1,10,10,0,0,0,2-3.54,10.43,10.43,0,0,0,.41-3.68,19,19,0,0,0-.63-3.79c-.33-1.29-.75-2.59-1.18-3.91s-.89-2.77-1.25-4.2a22.25,22.25,0,0,1-.7-4.31,12.63,12.63,0,0,1,.5-4.27,11.24,11.24,0,0,1,2.32-4,12.91,12.91,0,0,1,1.17-1.17,11.9,11.9,0,0,1,1.24-.94,10.76,10.76,0,0,1,1.31-.75,11.5,11.5,0,0,1,1.36-.57,15.22,15.22,0,0,1,2.91-.69,21.58,21.58,0,0,1,3-.2c1,0,2,0,3,.12s2,.17,3,.27,1.87.19,2.78.26,1.81.11,2.69.11a17.82,17.82,0,0,0,2.55-.16,11.79,11.79,0,0,0,2.38-.56,9.57,9.57,0,0,0,1.1-.47,9.11,9.11,0,0,0,1-.61,8.91,8.91,0,0,0,1-.78,11.92,11.92,0,0,0,.92-.95,8.74,8.74,0,0,0,1.78-3.25,9.48,9.48,0,0,0,.3-3.4,18.24,18.24,0,0,0-.68-3.54c-.34-1.2-.76-2.41-1.19-3.65s-.91-2.59-1.28-3.93a21,21,0,0,1-.75-4,11,11,0,0,1,.37-4,9.87,9.87,0,0,1,2.09-3.73,10.69,10.69,0,0,1,1.07-1.06,9.91,9.91,0,0,1,1.14-.85,9.66,9.66,0,0,1,1.21-.67A10.52,10.52,0,0,1,1213.44-764.46Z" transform="translate(673.04 784.13)"/></g></g><g id="Group_5" data-name="Group 5"><g id="Path_3-4" data-name="Path 3-4"><path class="cls-1" d="M1219.77-782.79a9.86,9.86,0,0,1-6.68,3.23A36.29,36.29,0,0,1,1205-780a36.85,36.85,0,0,0-8.13-.42,10.42,10.42,0,0,0-6.92,3.29,8.83,8.83,0,0,0-2.39,6.88,29.63,29.63,0,0,0,1.86,7.47,30.2,30.2,0,0,1,1.88,7.54,9.39,9.39,0,0,1-2.42,7.15,11,11,0,0,1-7.19,3.6,38.31,38.31,0,0,1-8.56-.28,38.52,38.52,0,0,0-8.65-.29,11.69,11.69,0,0,0-7.46,3.68,10,10,0,0,0-2.73,7.45,31.22,31.22,0,0,0,1.78,8,31.6,31.6,0,0,1,1.8,8.09,10.55,10.55,0,0,1-2.78,7.75,12.27,12.27,0,0,1-7.76,4,39.83,39.83,0,0,1-9.13-.12,40.61,40.61,0,0,0-9.22-.12,13.09,13.09,0,0,0-8.07,4.13,11.29,11.29,0,0,0-3.14,8.11,33.18,33.18,0,0,0,1.68,8.6,33.46,33.46,0,0,1,1.7,8.69,11.94,11.94,0,0,1-3.19,8.44,13.8,13.8,0,0,1-8.42,4.54,42,42,0,0,1-9.77.09,42.31,42.31,0,0,0-9.87.08,14.74,14.74,0,0,0-8.78,4.65,12.89,12.89,0,0,0-3.6,8.86,35.21,35.21,0,0,0,1.55,9.28,35.69,35.69,0,0,1,1.56,9.39,13.67,13.67,0,0,1-3.67,9.24,15.76,15.76,0,0,1-9.18,5.13,45.07,45.07,0,0,1-10.51.33,46.51,46.51,0,0,0-10.61.32,16.81,16.81,0,0,0-9.58,5.28,14.82,14.82,0,0,0-4.15,9.72,37.68,37.68,0,0,0,1.37,10.07,38.57,38.57,0,0,1,1.38,10.19,15.8,15.8,0,0,1-4.24,10.16,18.08,18.08,0,0,1-10.06,5.84,48.4,48.4,0,0,1-11.34.62,49,49,0,0,0-11.47.63,19.29,19.29,0,0,0-10.52,6,17.26,17.26,0,0,0-4.81,10.73c-.29,3.64.43,7.3,1.14,11A41.24,41.24,0,0,1,985.57-525a18.46,18.46,0,0,1-4.93,11.25,21,21,0,0,1-11.09,6.67,53,53,0,0,1-12.31,1,53,53,0,0,0-12.44,1,22.39,22.39,0,0,0-11.63,6.88,20.31,20.31,0,0,0-5.6,11.92c-.44,4,.2,8,.86,12s1.3,8.1.86,12.2a21.69,21.69,0,0,1-5.77,12.53,24.39,24.39,0,0,1-12.3,7.67c-4.35,1.19-8.88,1.32-13.43,1.45s-9.15.27-13.6,1.46A26.35,26.35,0,0,0,871.26-431a24.08,24.08,0,0,0-6.56,13.35c-.64,4.44-.09,8.86.47,13.3s1.12,8.93.48,13.48a25.92,25.92,0,0,1-6.78,14.07,29,29,0,0,1-13.74,8.89c-4.82,1.45-9.78,1.74-14.77,2s-10,.58-15,2.05a31.28,31.28,0,0,0-14.5,9.23,29.14,29.14,0,0,0-7.75,15c-.87,5-.45,9.88,0,14.8s.87,9.92,0,15a31.37,31.37,0,0,1-8,15.93,34.93,34.93,0,0,1-15.49,10.39c-5.37,1.78-10.85,2.26-16.35,2.75s-11.08,1-16.58,2.79a37.85,37.85,0,0,0-16.4,10.82,35.72,35.72,0,0,0-9.22,17.15c-1.18,5.6-.93,11.1-.67,16.61s.52,11.12-.69,16.88-3.91,11.8-9.6,18.2A42.48,42.48,0,0,1,682.46-186c-6,2.2-12.13,2.95-18.26,3.69s-12.35,1.51-18.54,3.75a46.46,46.46,0,0,0-18.73,12.82c-6.33,6.87-9.5,13.39-11.08,19.74s-1.57,12.6-1.55,18.84.05,12.59-1.57,19.17-4.93,13.55-11.59,21a53,53,0,0,1-20.3,14.64c-6.85,2.74-13.72,3.83-20.62,4.92s-13.9,2.2-21,5S525-55,517.6-47s-11.36,15.67-13.47,23S501.7-9.54,501.4-2.39s-.61,14.42-2.78,22-6.26,15.76-14.16,24.65S468.59,58.58,460.76,62s-15.71,5-23.57,6.56-15.85,3.14-24,6.67-16.6,9.12-25.43,18.7-13.79,18.63-16.61,27.2-3.59,16.89-4.35,25.19-1.53,16.77-4.44,25.72-8.05,18.62-17.58,29.33-18.95,17.4-28.1,21.77-18.25,6.59-27.34,8.79-18.34,4.43-27.88,9S241.87,252.37,231.14,264c-10.88,11.81-17,22.54-20.83,32.75s-5.23,20.05-6.63,29.86-2.85,19.83-6.79,30.54-10.51,22.41-22.22,35.58c-11.87,13.36-23.08,21.61-34,27.28s-21.61,8.8-32.31,11.9-21.6,6.27-33,12.17-23.64,14.72-37,29.21C24.86,488,16.89,501.17,11.72,513.59s-7.57,24.3-9.94,36.15-4.78,24-10.19,37.08-14,27.59-28.73,44.18c-15,16.84-28.8,27.5-42.07,35s-26.19,12-39.07,16.4-26.06,8.94-40,16.81-29.21,19.39-46.24,37.87c-17.29,18.79-27.89,35.39-35.08,50.93-7.28,15.7-11.07,30.27-14.89,45s-7.74,29.78-15.31,46.27c-7.66,16.68-19.12,35-38.25,56.5-19.47,21.9-37.05,36.09-53.72,46.37-16.84,10.4-32.68,16.77-48.65,23.19s-32.36,13-50,23.84c-17.87,10.95-37.3,26.36-59.78,50.77-22.9,24.87-37.44,46.53-47.76,66.65-10.45,20.36-16.53,39.05-22.66,57.92-6.2,19.07-12.47,38.35-23.43,59.89-11.1,21.81-27.07,46.06-52.88,75.1" transform="translate(673.04 784.13)"/><path class="cls-2" d="M1193-781.49a15,15,0,0,1,2.76-.55,20.92,20.92,0,0,1,2.86-.1c1,0,1.93.09,2.89.19s1.91.21,2.83.33,1.78.22,2.65.31,1.71.15,2.55.18a19.25,19.25,0,0,0,2.42-.08,12.06,12.06,0,0,0,2.26-.45c.35-.12.7-.25,1-.4a10.48,10.48,0,0,0,1-.54,8.49,8.49,0,0,0,.93-.68,9.92,9.92,0,0,0,.87-.85l3.5,2.69a9.78,9.78,0,0,1-1,1,9.32,9.32,0,0,1-1.11.82,9.78,9.78,0,0,1-1.19.64,9.34,9.34,0,0,1-1.24.48,14.28,14.28,0,0,1-2.69.56,22,22,0,0,1-2.82.11c-1,0-1.91-.1-2.87-.19s-1.9-.21-2.83-.33l-2.65-.3c-.87-.09-1.73-.16-2.57-.18a19.9,19.9,0,0,0-2.46.08,11.68,11.68,0,0,0-2.31.47,9.79,9.79,0,0,0-1.07.4,8.5,8.5,0,0,0-1,.55,8.87,8.87,0,0,0-1,.71,9.25,9.25,0,0,0-.91.87,8,8,0,0,0-1.81,3,8.75,8.75,0,0,0-.35,3.26,16.56,16.56,0,0,0,.63,3.44c.32,1.17.73,2.37,1.14,3.58s.88,2.57,1.24,3.9a20.83,20.83,0,0,1,.72,4,11.31,11.31,0,0,1-.42,4,10.23,10.23,0,0,1-2.19,3.84,13,13,0,0,1-1.12,1.11,12.51,12.51,0,0,1-1.2.9,11.5,11.5,0,0,1-1.28.71,11,11,0,0,1-1.34.54,14.59,14.59,0,0,1-2.87.66,21.39,21.39,0,0,1-3,.17c-1,0-2-.06-3.05-.14s-2-.18-3-.29-1.89-.2-2.82-.27-1.84-.13-2.73-.14a18.75,18.75,0,0,0-2.62.14,12.63,12.63,0,0,0-2.47.54,11.72,11.72,0,0,0-1.16.47,9.21,9.21,0,0,0-1.1.61,10.52,10.52,0,0,0-1.06.77,11.13,11.13,0,0,0-1,1,9.41,9.41,0,0,0-2,3.31,9.76,9.76,0,0,0-.46,3.52,17.26,17.26,0,0,0,.58,3.68c.31,1.26.71,2.53,1.12,3.83s.87,2.75,1.22,4.17a21.91,21.91,0,0,1,.65,4.31,12.26,12.26,0,0,1-.55,4.32,11.71,11.71,0,0,1-2.44,4.19,14,14,0,0,1-1.22,1.22,11.86,11.86,0,0,1-1.31,1,12,12,0,0,1-1.38.8,12.94,12.94,0,0,1-1.44.61,16.25,16.25,0,0,1-3.09.77,22.64,22.64,0,0,1-3.2.25c-1.09,0-2.17,0-3.25-.08s-2.15-.16-3.2-.25-2-.17-3-.23-2-.1-2.91-.09a21.33,21.33,0,0,0-2.8.2,14,14,0,0,0-2.66.65,11.2,11.2,0,0,0-1.24.52,11.89,11.89,0,0,0-1.2.68,13.22,13.22,0,0,0-1.15.86,12,12,0,0,0-1.09,1.06,10.63,10.63,0,0,0-2.24,3.62,10.72,10.72,0,0,0-.59,3.8,19,19,0,0,0,.51,4c.3,1.34.69,2.72,1.1,4.11s.84,3,1.18,4.48a23.47,23.47,0,0,1,.58,4.64,13.53,13.53,0,0,1-.72,4.68,13.42,13.42,0,0,1-2.72,4.58,14.33,14.33,0,0,1-1.35,1.35,14.38,14.38,0,0,1-1.42,1.11,14.41,14.41,0,0,1-1.5.89,13.54,13.54,0,0,1-1.56.7,18.32,18.32,0,0,1-3.32.9,28.39,28.39,0,0,1-3.45.35c-1.15,0-2.32,0-3.47,0s-2.3-.12-3.42-.2-2.15-.14-3.2-.18-2.1-.07-3.12,0a22.9,22.9,0,0,0-3,.28,15.66,15.66,0,0,0-2.86.76,11.57,11.57,0,0,0-1.35.6,12.22,12.22,0,0,0-1.3.76,14,14,0,0,0-1.26,1,14.62,14.62,0,0,0-1.2,1.17,12.48,12.48,0,0,0-2.51,4,12.06,12.06,0,0,0-.75,4.14,21.09,21.09,0,0,0,.44,4.28c.28,1.46.66,2.94,1,4.44s.82,3.18,1.13,4.82a24.94,24.94,0,0,1,.49,5,15.51,15.51,0,0,1-.91,5.1,15.57,15.57,0,0,1-3.06,5,17.51,17.51,0,0,1-1.48,1.5,17.76,17.76,0,0,1-1.57,1.24,15.51,15.51,0,0,1-1.63,1,17.42,17.42,0,0,1-1.7.8,19.91,19.91,0,0,1-3.59,1,27.47,27.47,0,0,1-3.71.47c-1.25.07-2.5.08-3.73.06s-2.47-.07-3.67-.13-2.31-.1-3.44-.12-2.25,0-3.35,0a23,23,0,0,0-3.24.39,17,17,0,0,0-3.11.89,16.07,16.07,0,0,0-1.47.68,14.13,14.13,0,0,0-1.42.86,13.6,13.6,0,0,0-1.38,1.08,14.73,14.73,0,0,0-1.33,1.3,14.32,14.32,0,0,0-2.82,4.38,13.77,13.77,0,0,0-.94,4.51,23.1,23.1,0,0,0,.33,4.66c.26,1.58.63,3.18,1,4.8s.78,3.44,1.07,5.23a26.91,26.91,0,0,1,.36,5.47,17.61,17.61,0,0,1-1.13,5.57,18.27,18.27,0,0,1-3.46,5.57,18.62,18.62,0,0,1-1.65,1.67,19.75,19.75,0,0,1-1.72,1.39,19.34,19.34,0,0,1-1.8,1.14,19.79,19.79,0,0,1-1.85.91,22.49,22.49,0,0,1-3.91,1.25,32.34,32.34,0,0,1-4,.6c-1.35.11-2.7.16-4,.16s-2.66,0-4,0-2.48-.06-3.7-.05-2.43,0-3.62.13a29.08,29.08,0,0,0-3.51.5,18.64,18.64,0,0,0-3.38,1.06c-.54.23-1.08.49-1.61.78a17.66,17.66,0,0,0-1.57,1,16.42,16.42,0,0,0-1.52,1.21,18.29,18.29,0,0,0-1.48,1.45,16.86,16.86,0,0,0-3.19,4.86,15.25,15.25,0,0,0-1.17,5,25.57,25.57,0,0,0,.2,5.08c.23,1.72.57,3.46.92,5.23s.73,3.74,1,5.69a29,29,0,0,1,.21,6,20.05,20.05,0,0,1-1.41,6.14A21.71,21.71,0,0,1,983-512c-.6.68-1.22,1.3-1.84,1.88s-1.27,1.09-1.92,1.57a21.71,21.71,0,0,1-2,1.3c-.67.39-1.35.73-2,1a25,25,0,0,1-4.28,1.48,33,33,0,0,1-4.37.76c-1.46.16-2.92.25-4.37.29s-2.88.05-4.28.06-2.69,0-4,.05-2.64.11-3.93.24a28.89,28.89,0,0,0-3.83.65,21.21,21.21,0,0,0-3.7,1.25,18.44,18.44,0,0,0-1.77.9,19.51,19.51,0,0,0-1.73,1.12,19.24,19.24,0,0,0-1.7,1.37,23.23,23.23,0,0,0-1.66,1.64,19.78,19.78,0,0,0-3.63,5.42,18.17,18.17,0,0,0-1.45,5.49,27.41,27.41,0,0,0,0,5.58c.18,1.89.49,3.79.8,5.73s.67,4.1.87,6.24a33.52,33.52,0,0,1,0,6.57,23.17,23.17,0,0,1-1.76,6.8,25.46,25.46,0,0,1-4.48,6.94c-.68.76-1.37,1.47-2.07,2.12s-1.42,1.24-2.14,1.79a24.91,24.91,0,0,1-2.2,1.48,24.65,24.65,0,0,1-2.25,1.22,27.64,27.64,0,0,1-4.71,1.74,38.24,38.24,0,0,1-4.78,1c-1.6.22-3.19.35-4.77.45s-3.13.13-4.66.18-2.93.09-4.37.17-2.88.2-4.29.38a33,33,0,0,0-4.19.83,24.43,24.43,0,0,0-4.08,1.49,22,22,0,0,0-2,1c-.65.39-1.29.82-1.93,1.29a24.21,24.21,0,0,0-1.91,1.56c-.63.57-1.25,1.19-1.87,1.86a24.07,24.07,0,0,0-4.16,6.1,20.82,20.82,0,0,0-1.79,6.11,31.1,31.1,0,0,0-.16,6.18c.13,2.08.39,4.18.66,6.31s.58,4.52.71,6.88a36.45,36.45,0,0,1-.23,7.28,27.32,27.32,0,0,1-2.17,7.59,31.09,31.09,0,0,1-5.16,7.82c-.77.87-1.55,1.68-2.35,2.42s-1.59,1.42-2.41,2.05a29.57,29.57,0,0,1-2.46,1.72c-.83.52-1.67,1-2.51,1.42a32.81,32.81,0,0,1-5.22,2.08,41.41,41.41,0,0,1-5.27,1.23c-1.75.29-3.5.49-5.23.64s-3.44.26-5.12.35-3.21.19-4.79.33-3.16.31-4.72.56a35.43,35.43,0,0,0-4.62,1.05,26.92,26.92,0,0,0-4.53,1.78c-.74.36-1.47.77-2.2,1.22s-1.45.95-2.17,1.49-1.44,1.14-2.15,1.8-1.42,1.35-2.13,2.12a29.39,29.39,0,0,0-4.82,6.92,24.88,24.88,0,0,0-2.2,6.86,35.25,35.25,0,0,0-.43,6.88c.05,2.31.26,4.64.47,7s.44,5,.5,7.65a42.65,42.65,0,0,1-.55,8.12,32.77,32.77,0,0,1-2.7,8.54,38.14,38.14,0,0,1-6,8.91c-.89,1-1.78,1.92-2.68,2.78s-1.82,1.64-2.74,2.37-1.85,1.39-2.78,2-1.88,1.16-2.82,1.67a38.61,38.61,0,0,1-5.83,2.5,47.43,47.43,0,0,1-5.86,1.55c-2,.39-3.88.67-5.79.9s-3.8.4-5.65.56-3.55.32-5.3.52-3.5.45-5.22.79a41,41,0,0,0-5.15,1.33,33.51,33.51,0,0,0-5.08,2.14c-.82.44-1.65.92-2.47,1.45a29.31,29.31,0,0,0-2.47,1.74c-.81.64-1.63,1.33-2.45,2.08s-1.62,1.57-2.43,2.46a36,36,0,0,0-5.63,7.92,30.16,30.16,0,0,0-2.73,7.76,40.56,40.56,0,0,0-.78,7.74c0,2.59.08,5.2.21,7.86s.27,5.62.22,8.57a49.57,49.57,0,0,1-1,9.14,39.89,39.89,0,0,1-3.36,9.7,47.66,47.66,0,0,1-7,10.25q-1.53,1.73-3.09,3.22c-1,1-2.08,1.92-3.13,2.77s-2.12,1.64-3.18,2.36-2.13,1.38-3.2,2a45.41,45.41,0,0,1-6.58,3,55.51,55.51,0,0,1-6.56,2c-2.18.51-4.34.9-6.47,1.22s-4.24.59-6.3.84-4,.49-5.91.78-3.9.64-5.83,1.08a48.66,48.66,0,0,0-5.78,1.68,39.5,39.5,0,0,0-5.74,2.61c-1,.52-1.89,1.09-2.82,1.72s-1.89,1.31-2.83,2.06-1.88,1.56-2.82,2.44-1.88,1.84-2.83,2.87a45.55,45.55,0,0,0-6.63,9.16,37.39,37.39,0,0,0-3.42,8.89,49.33,49.33,0,0,0-1.23,8.79c-.17,2.94-.15,5.89-.14,8.89s0,6.36-.17,9.71a58.45,58.45,0,0,1-1.5,10.41,48.61,48.61,0,0,1-4.22,11.14,59.68,59.68,0,0,1-8.34,11.91c-1.2,1.36-2.4,2.61-3.61,3.79s-2.42,2.26-3.64,3.27-2.43,1.94-3.66,2.81S591-72.77,589.81-72a56.74,56.74,0,0,1-7.5,3.72,64.88,64.88,0,0,1-7.44,2.48c-2.47.67-4.91,1.2-7.31,1.65s-4.77.83-7.09,1.21-4.45.71-6.65,1.12-4.41.88-6.6,1.46a57.69,57.69,0,0,0-6.56,2.15,48.93,48.93,0,0,0-6.57,3.2c-1.08.63-2.16,1.32-3.25,2.07s-2.17,1.57-3.27,2.47-2.19,1.85-3.29,2.9-2.21,2.17-3.32,3.38A58.09,58.09,0,0,0,513-33.5a45.85,45.85,0,0,0-4.3,10.3,58.25,58.25,0,0,0-1.85,10.1c-.34,3.37-.48,6.75-.62,10.19s-.29,7.28-.69,11.13a71.67,71.67,0,0,1-2.24,12,61.51,61.51,0,0,1-5.33,13,77.26,77.26,0,0,1-10,14q-2.13,2.41-4.26,4.51c-1.43,1.4-2.85,2.7-4.28,3.92S476.57,58,475.15,59s-2.85,2-4.27,2.9a68.79,68.79,0,0,1-8.68,4.59,75.62,75.62,0,0,1-8.54,3.19c-2.82.88-5.6,1.59-8.34,2.22s-5.44,1.16-8.09,1.69-5.07,1-7.58,1.59-5,1.2-7.54,2a67.51,67.51,0,0,0-7.55,2.76,60.53,60.53,0,0,0-7.62,4c-1.26.78-2.53,1.62-3.8,2.54s-2.56,1.91-3.85,3-2.59,2.24-3.89,3.49-2.63,2.61-4,4.06a76.53,76.53,0,0,0-9.61,12.77,60,60,0,0,0-5.47,12.11,72.92,72.92,0,0,0-2.68,11.79c-.58,3.92-.93,7.85-1.29,11.84-.37,4.15-.75,8.46-1.43,12.94a88.41,88.41,0,0,1-3.25,14,79.08,79.08,0,0,1-6.82,15.32,102.6,102.6,0,0,1-12.25,16.82q-2.58,2.9-5.13,5.44t-5.11,4.78q-2.55,2.22-5.09,4.15t-5.05,3.58a88.27,88.27,0,0,1-10.18,5.77,97,97,0,0,1-9.95,4.14c-3.28,1.15-6.51,2.12-9.68,3s-6.29,1.62-9.35,2.37-5.87,1.43-8.79,2.21-5.83,1.65-8.75,2.67a85.62,85.62,0,0,0-8.82,3.6,77,77,0,0,0-9,5q-2.24,1.45-4.52,3.16c-1.52,1.14-3,2.36-4.6,3.69s-3.11,2.75-4.69,4.28-3.18,3.18-4.8,4.95a102.84,102.84,0,0,0-11.84,15.45,79,79,0,0,0-7.07,14.5,93.08,93.08,0,0,0-3.84,14c-.93,4.64-1.58,9.28-2.25,14-.69,4.92-1.41,10-2.49,15.33A113.1,113.1,0,0,1,203,357.42a106.28,106.28,0,0,1-8.86,18.44,140.25,140.25,0,0,1-15.26,20.53c-2.11,2.38-4.21,4.61-6.29,6.72s-4.17,4.07-6.23,5.92-4.12,3.58-6.16,5.19-4.07,3.12-6.09,4.51a113.68,113.68,0,0,1-12.18,7.4,122.91,122.91,0,0,1-11.82,5.44c-3.88,1.56-7.69,2.88-11.42,4.08s-7.43,2.27-11,3.32-6.91,2-10.35,3.11-6.9,2.28-10.37,3.65a111.17,111.17,0,0,0-10.5,4.77A102.08,102.08,0,0,0,65.64,457c-1.81,1.24-3.64,2.57-5.48,4s-3.72,3-5.62,4.65-3.82,3.45-5.77,5.37-3.94,4-6,6.16a142.22,142.22,0,0,0-14.93,19.11A108.88,108.88,0,0,0,18.59,514a124.39,124.39,0,0,0-5.5,17c-1.42,5.61-2.52,11.2-3.65,16.9-1.17,5.93-2.38,12.08-4,18.53a152.67,152.67,0,0,1-6.66,20.36A146.46,146.46,0,0,1-13,609.47a196,196,0,0,1-19.44,25.66q-4,4.5-7.9,8.49t-7.78,7.54q-3.85,3.54-7.64,6.64t-7.52,5.84a160.71,160.71,0,0,1-14.92,9.7c-4.89,2.8-9.68,5.2-14.37,7.31s-9.3,4-13.81,5.64-8.94,3.22-13.29,4.72c-4.18,1.44-8.33,2.88-12.49,4.42s-8.34,3.19-12.55,5.07-8.49,4-12.83,6.44a145.85,145.85,0,0,0-13.33,8.56c-2.25,1.62-4.52,3.35-6.83,5.22s-4.66,3.86-7,6-4.82,4.44-7.29,6.9-5,5.09-7.57,7.89a206.36,206.36,0,0,0-19.32,24.27,156.44,156.44,0,0,0-12.55,22.28,173.08,173.08,0,0,0-8,21.15c-2.17,7-4,13.9-5.77,21-1.89,7.36-3.86,15-6.37,23a214.24,214.24,0,0,1-9.69,25.5,213.7,213.7,0,0,1-16,28.8,289.89,289.89,0,0,1-25.54,33Q-308,946.4-313,951.62t-10,9.88q-4.95,4.66-9.78,8.78t-9.56,7.77c-6.45,5-12.73,9.29-18.85,13.1s-12.14,7.15-18,10.12-11.59,5.59-17.19,8-11.11,4.65-16.5,6.83c-5.19,2.1-10.35,4.18-15.52,6.41s-10.4,4.59-15.68,7.23-10.66,5.6-16.15,9a204.87,204.87,0,0,0-17,11.66c-2.89,2.19-5.81,4.53-8.79,7s-6,5.18-9.13,8-6.28,5.92-9.53,9.19-6.57,6.74-10,10.45A316.48,316.48,0,0,0-540.57,1117a236.32,236.32,0,0,0-17.49,29,256.88,256.88,0,0,0-11.83,27.28c-3.33,9-6.2,17.87-9.12,26.94-3,9.45-6.22,19.28-10.09,29.65A324.12,324.12,0,0,1-603.54,1263a329.4,329.4,0,0,1-22.58,37.92A459.86,459.86,0,0,1-661,1345.17L-673,1333.83A387.13,387.13,0,0,0-643.73,1297a271,271,0,0,0,19.15-31.83A278.05,278.05,0,0,0-612,1236.39c3.49-9.28,6.48-18.38,9.49-27.56,3.11-9.49,6.31-19.24,10.17-29.41a303.34,303.34,0,0,1,14-31.7A293.45,293.45,0,0,1-557.1,1113a376.15,376.15,0,0,1,31.21-38.24q6.09-6.58,11.94-12.4t11.42-10.89q5.58-5.09,10.94-9.53c3.57-3,7.07-5.73,10.51-8.32,7-5.27,13.71-9.81,20.21-13.79s12.72-7.38,18.77-10.41,11.87-5.65,17.55-8.07,11.16-4.61,16.52-6.75c5.14-2,10.22-4.08,15.29-6.23s10.09-4.41,15.17-6.93,10.16-5.29,15.33-8.47a184.4,184.4,0,0,0,15.74-10.81c2.64-2,5.29-4.16,8-6.44s5.4-4.7,8.16-7.28,5.54-5.31,8.38-8.22,5.69-6,8.6-9.24a247.09,247.09,0,0,0,21.48-27.47,176.11,176.11,0,0,0,13.56-24.15,186,186,0,0,0,8.45-22.17c2.26-7.18,4.12-14.24,6-21.38,1.94-7.37,3.93-15,6.44-22.85A203.39,203.39,0,0,1-248,788.43a193,193,0,0,1,15.17-26.65,246.1,246.1,0,0,1,23.28-29.07q4.62-5,9.07-9.36c3-2.92,5.88-5.64,8.75-8.19s5.67-4.91,8.44-7.13,5.49-4.27,8.17-6.18a176.2,176.2,0,0,1,15.88-10.13c5.12-2.88,10.08-5.33,14.92-7.48s9.5-4,14.06-5.67,9-3.19,13.31-4.66c4.15-1.42,8.25-2.81,12.33-4.31s8.13-3.08,12.21-4.87,8.13-3.8,12.25-6.12a130.15,130.15,0,0,0,12.48-8q3.11-2.26,6.27-4.84c2.11-1.72,4.24-3.55,6.39-5.52s4.31-4,6.5-6.27,4.4-4.58,6.65-7.09a166.84,166.84,0,0,0,16.36-21.32,120.76,120.76,0,0,0,10-19,131.16,131.16,0,0,0,5.81-17.69c1.48-5.76,2.63-11.45,3.79-17.19,1.2-5.94,2.44-12.06,4.09-18.4a145.07,145.07,0,0,1,6.57-19.68A133.46,133.46,0,0,1,16,492.36a169.6,169.6,0,0,1,18-22.89q3.61-3.92,7.13-7.31c2.34-2.28,4.65-4.39,6.93-6.37s4.52-3.81,6.74-5.51,4.4-3.29,6.56-4.75a125.61,125.61,0,0,1,12.88-7.68,130.92,130.92,0,0,1,12.23-5.54c4-1.56,7.83-2.89,11.61-4.08s7.45-2.25,11-3.29c3.44-1,6.85-2,10.24-3s6.74-2.2,10.1-3.52a104.15,104.15,0,0,0,10.1-4.55,94,94,0,0,0,10.19-6.11c1.68-1.16,3.38-2.4,5.08-3.74s3.42-2.77,5.15-4.31,3.46-3.18,5.21-4.94,3.51-3.62,5.29-5.61a118.38,118.38,0,0,0,12.84-17.05,87.23,87.23,0,0,0,7.51-15.46,97.08,97.08,0,0,0,4-14.52c1-4.74,1.65-9.45,2.35-14.2.71-4.92,1.45-10,2.54-15.23a108.78,108.78,0,0,1,4.6-16.21,97.29,97.29,0,0,1,8.55-17.33,121.4,121.4,0,0,1,14.26-18.51c1.93-2.1,3.85-4.05,5.75-5.87s3.77-3.51,5.64-5.08,3.69-3,5.52-4.38,3.62-2.59,5.41-3.74a95.21,95.21,0,0,1,10.71-6,102.34,102.34,0,0,1,10.26-4.2c3.35-1.16,6.62-2.13,9.83-3s6.32-1.61,9.37-2.34,5.82-1.4,8.69-2.16,5.73-1.6,8.57-2.58a82,82,0,0,0,8.51-3.45,71.64,71.64,0,0,0,8.52-4.77q2.1-1.38,4.22-3t4.25-3.45c1.42-1.24,2.84-2.56,4.27-4s2.87-2.93,4.32-4.55a86.31,86.31,0,0,0,10.31-14,64.82,64.82,0,0,0,5.78-12.83,75,75,0,0,0,2.81-12.19c.62-4,1-8,1.36-12s.79-8.45,1.48-12.87A85.06,85.06,0,0,1,366,120.65a73,73,0,0,1,6.61-14.48,91.65,91.65,0,0,1,11.56-15.3q2.38-2.57,4.75-4.8t4.68-4.15q2.32-1.92,4.62-3.55t4.55-3a75.23,75.23,0,0,1,9.08-4.72,83.36,83.36,0,0,1,8.79-3.22c2.87-.88,5.69-1.59,8.46-2.22s5.46-1.15,8.1-1.67,5-1,7.52-1.54,4.94-1.17,7.39-1.91a65.64,65.64,0,0,0,7.31-2.66,56.1,56.1,0,0,0,7.26-3.79c1.19-.74,2.38-1.54,3.57-2.41s2.39-1.8,3.58-2.81,2.38-2.1,3.58-3.27,2.39-2.42,3.58-3.76a64.86,64.86,0,0,0,8.45-11.66,50,50,0,0,0,4.52-10.86,61.91,61.91,0,0,0,1.94-10.41c.36-3.44.51-6.85.66-10.31s.32-7.27.74-11.07a68.18,68.18,0,0,1,2.25-11.7,56.88,56.88,0,0,1,5.2-12.3,69,69,0,0,1,9.53-12.87c1.33-1.44,2.66-2.77,4-4s2.64-2.38,4-3.44,2.62-2,3.93-2.92,2.6-1.72,3.89-2.46a59.15,59.15,0,0,1,7.84-3.8,66.72,66.72,0,0,1,7.64-2.51c2.5-.67,5-1.2,7.39-1.65s4.79-.82,7.11-1.18,4.42-.7,6.6-1.09,4.33-.85,6.47-1.42a54.32,54.32,0,0,0,6.37-2.07,46.59,46.59,0,0,0,6.29-3.06c1-.61,2-1.26,3.07-2s2-1.49,3.06-2.33,2-1.75,3-2.73,2-2,3-3.16a50.75,50.75,0,0,0,7-9.89,39.24,39.24,0,0,0,3.57-9.33,49.88,49.88,0,0,0,1.3-9c.18-3,.18-6,.17-9s0-6.34.21-9.65a56.13,56.13,0,0,1,1.52-10.17,45.51,45.51,0,0,1,4.13-10.61,54.22,54.22,0,0,1,8-11q1.7-1.83,3.39-3.4t3.4-2.89c1.13-.89,2.26-1.7,3.39-2.45s2.25-1.42,3.38-2a48,48,0,0,1,6.85-3.09,55.44,55.44,0,0,1,6.73-2c2.21-.51,4.4-.9,6.55-1.22s4.25-.57,6.31-.82,3.93-.48,5.86-.76,3.84-.61,5.74-1a47.28,47.28,0,0,0,5.62-1.63,38.05,38.05,0,0,0,5.52-2.5q1.34-.75,2.67-1.65c.89-.6,1.77-1.25,2.65-2s1.75-1.48,2.62-2.31,1.74-1.73,2.6-2.69a40.3,40.3,0,0,0,5.93-8.51,32.34,32.34,0,0,0,2.85-8.12,43,43,0,0,0,.82-7.93c0-2.64-.07-5.27-.19-7.94s-.25-5.61-.18-8.53a48,48,0,0,1,1-8.94,36.83,36.83,0,0,1,3.31-9.27,43.25,43.25,0,0,1,6.77-9.5c1-1.05,1.94-2,2.92-2.91s2-1.72,3-2.47,2-1.44,3-2.07,2-1.2,3-1.71a41.54,41.54,0,0,1,6.05-2.55,50.38,50.38,0,0,1,6-1.56c2-.38,3.94-.66,5.87-.89s3.81-.38,5.66-.54,3.53-.31,5.26-.51,3.45-.43,5.14-.76a41.49,41.49,0,0,0,5-1.28,32.25,32.25,0,0,0,4.89-2.07c.79-.42,1.58-.88,2.36-1.38s1.55-1.06,2.32-1.67,1.53-1.26,2.29-2,1.5-1.49,2.25-2.32a32.45,32.45,0,0,0,5.06-7.4,26.6,26.6,0,0,0,2.28-7.15,37,37,0,0,0,.47-7c-.05-2.35-.25-4.7-.46-7.08s-.42-5-.47-7.61a41.54,41.54,0,0,1,.57-7.95,30.83,30.83,0,0,1,2.67-8.19,34.91,34.91,0,0,1,5.8-8.29c.84-.91,1.69-1.75,2.55-2.53a32.87,32.87,0,0,1,2.58-2.12c.87-.65,1.74-1.24,2.62-1.77a29.74,29.74,0,0,1,2.63-1.45,33.83,33.83,0,0,1,5.41-2.12,44.27,44.27,0,0,1,5.38-1.23c1.78-.29,3.55-.49,5.29-.64s3.46-.24,5.13-.34,3.19-.18,4.76-.3,3.12-.3,4.65-.55a34.73,34.73,0,0,0,4.52-1,26.41,26.41,0,0,0,4.37-1.72,21.93,21.93,0,0,0,2.1-1.18,23.87,23.87,0,0,0,2.06-1.43,26.06,26.06,0,0,0,2-1.71c.67-.62,1.32-1.29,2-2a26.23,26.23,0,0,0,4.36-6.5,22.28,22.28,0,0,0,1.84-6.35,31.7,31.7,0,0,0,.19-6.31c-.12-2.11-.39-4.22-.65-6.37s-.56-4.51-.68-6.85a35.66,35.66,0,0,1,.25-7.13,25.53,25.53,0,0,1,2.16-7.29,28.55,28.55,0,0,1,5-7.32c.74-.8,1.49-1.53,2.24-2.21s1.52-1.29,2.29-1.85,1.55-1.07,2.33-1.53,1.57-.87,2.36-1.23a29.05,29.05,0,0,1,4.86-1.77,38.63,38.63,0,0,1,4.88-1c1.62-.22,3.23-.36,4.82-.44s3.15-.14,4.67-.18,2.92-.08,4.35-.16,2.84-.18,4.23-.37a29.7,29.7,0,0,0,4.1-.8,23.43,23.43,0,0,0,3.95-1.44c.63-.3,1.26-.63,1.88-1s1.23-.79,1.84-1.24,1.2-.95,1.79-1.5a24.35,24.35,0,0,0,1.74-1.77,21.41,21.41,0,0,0,3.78-5.76,18.73,18.73,0,0,0,1.49-5.69,28.58,28.58,0,0,0,0-5.7c-.18-1.91-.48-3.83-.79-5.77s-.66-4.09-.85-6.21a32.34,32.34,0,0,1,0-6.45,22,22,0,0,1,1.75-6.55,23.83,23.83,0,0,1,4.37-6.51,25.83,25.83,0,0,1,2-1.94,24.94,24.94,0,0,1,2-1.62,23.62,23.62,0,0,1,2.09-1.33c.7-.4,1.41-.75,2.12-1.07a27.7,27.7,0,0,1,4.42-1.49,34.49,34.49,0,0,1,4.45-.76c1.48-.16,3-.24,4.41-.28s2.89-.05,4.29-.05,2.68,0,4,0,2.61-.1,3.88-.23a27.17,27.17,0,0,0,3.75-.63,20.49,20.49,0,0,0,3.59-1.21c.57-.26,1.14-.55,1.7-.87a18.66,18.66,0,0,0,1.65-1.08,19.39,19.39,0,0,0,1.61-1.32,20.69,20.69,0,0,0,1.54-1.56,18.07,18.07,0,0,0,3.31-5.14,16.22,16.22,0,0,0,1.21-5.14,26.49,26.49,0,0,0-.2-5.18c-.22-1.74-.56-3.5-.91-5.27s-.72-3.74-1-5.67a28.74,28.74,0,0,1-.18-5.87,18.84,18.84,0,0,1,1.41-5.93,20.06,20.06,0,0,1,3.84-5.82,22,22,0,0,1,1.77-1.73,19.85,19.85,0,0,1,1.84-1.43,21,21,0,0,1,1.89-1.17,21.24,21.24,0,0,1,1.93-.92,22.86,22.86,0,0,1,4-1.25,30,30,0,0,1,4.08-.6c1.37-.11,2.73-.15,4.07-.16s2.67,0,4,.06,2.47.06,3.69.05,2.4,0,3.57-.12a26.29,26.29,0,0,0,3.45-.49,18.3,18.3,0,0,0,3.28-1c.52-.23,1-.48,1.55-.76a16.17,16.17,0,0,0,1.49-.95,17.13,17.13,0,0,0,1.45-1.16c.47-.43.93-.89,1.39-1.4a15.48,15.48,0,0,0,2.91-4.62,14.28,14.28,0,0,0,1-4.67,23.84,23.84,0,0,0-.33-4.74c-.26-1.59-.62-3.2-1-4.83s-.77-3.44-1-5.21a26.84,26.84,0,0,1-.34-5.38,16.49,16.49,0,0,1,1.15-5.39,17,17,0,0,1,3.38-5.25,17.72,17.72,0,0,1,1.6-1.54,17.42,17.42,0,0,1,1.66-1.27,14.48,14.48,0,0,1,1.72-1,17.32,17.32,0,0,1,1.76-.8,20.51,20.51,0,0,1,3.7-1.07,28.3,28.3,0,0,1,3.77-.45c1.26-.08,2.52-.09,3.77-.06s2.47.08,3.67.14,2.3.1,3.42.13,2.23,0,3.32,0a25.35,25.35,0,0,0,3.18-.37,16.57,16.57,0,0,0,3-.87,14,14,0,0,0,1.42-.66,15.14,15.14,0,0,0,1.36-.84,13.88,13.88,0,0,0,1.31-1,14.74,14.74,0,0,0,1.25-1.25,13,13,0,0,0,2.58-4.17,12.72,12.72,0,0,0,.78-4.27,21.72,21.72,0,0,0-.44-4.36c-.28-1.47-.66-3-1-4.46s-.81-3.18-1.11-4.81a23.58,23.58,0,0,1-.46-5,14.43,14.43,0,0,1,.92-4.93,14.57,14.57,0,0,1,3-4.77,18.53,18.53,0,0,1,1.44-1.38,15.85,15.85,0,0,1,1.52-1.14,14.53,14.53,0,0,1,1.57-.91,17.42,17.42,0,0,1,1.61-.7,18,18,0,0,1,3.42-.9,27.48,27.48,0,0,1,3.5-.35c1.17,0,2.34,0,3.5,0s2.31.13,3.43.2,2.14.15,3.19.19,2.07.07,3.08,0a23.75,23.75,0,0,0,3-.28,14.7,14.7,0,0,0,2.79-.74,13.59,13.59,0,0,0,1.3-.58,13.23,13.23,0,0,0,1.25-.74,11.58,11.58,0,0,0,1.19-.93,13.47,13.47,0,0,0,1.14-1.13,11.38,11.38,0,0,0,2.3-3.8,11.42,11.42,0,0,0,.61-3.91,20.15,20.15,0,0,0-.52-4c-.29-1.37-.69-2.75-1.09-4.14s-.84-3-1.16-4.46a22.32,22.32,0,0,1-.56-4.58,13.2,13.2,0,0,1,.73-4.54,12.69,12.69,0,0,1,2.68-4.34c.43-.45.87-.87,1.31-1.25a13.37,13.37,0,0,1,1.39-1,14.66,14.66,0,0,1,1.44-.81c.49-.23,1-.44,1.49-.62a17.22,17.22,0,0,1,3.17-.76,25.14,25.14,0,0,1,3.26-.25c1.09,0,2.19,0,3.27.09s2.16.16,3.21.26,2,.17,3,.23,2,.11,2.89.1a20.57,20.57,0,0,0,2.75-.2,13.07,13.07,0,0,0,2.59-.63,11.51,11.51,0,0,0,1.21-.51,10.29,10.29,0,0,0,1.15-.66,10.58,10.58,0,0,0,1.09-.84,12.36,12.36,0,0,0,1-1,9.8,9.8,0,0,0,2.06-3.47,10.29,10.29,0,0,0,.48-3.61,18.28,18.28,0,0,0-.59-3.74c-.31-1.27-.71-2.56-1.12-3.86s-.86-2.74-1.2-4.15a20.79,20.79,0,0,1-.63-4.25,11.74,11.74,0,0,1,.57-4.19,10.91,10.91,0,0,1,2.41-4,11.42,11.42,0,0,1,1.19-1.13,10.73,10.73,0,0,1,1.27-.92,11.61,11.61,0,0,1,1.33-.73,12.46,12.46,0,0,1,1.39-.54,14.7,14.7,0,0,1,2.94-.65,22.19,22.19,0,0,1,3-.17c1,0,2.06.06,3.07.14s2,.19,3,.3,1.89.2,2.81.28,1.82.13,2.71.14a18,18,0,0,0,2.57-.14,12,12,0,0,0,2.42-.53,10.73,10.73,0,0,0,1.11-.45,9.32,9.32,0,0,0,1.07-.59,10.14,10.14,0,0,0,1-.76,10.37,10.37,0,0,0,.95-.93,8.57,8.57,0,0,0,1.85-3.18,9.24,9.24,0,0,0,.36-3.35,17.72,17.72,0,0,0-.63-3.49c-.33-1.18-.74-2.38-1.15-3.6s-.87-2.56-1.22-3.88a19.69,19.69,0,0,1-.7-4,10.84,10.84,0,0,1,.44-3.88,9.69,9.69,0,0,1,2.16-3.66,11.7,11.7,0,0,1,1.1-1,11.46,11.46,0,0,1,1.17-.84,9.69,9.69,0,0,1,1.24-.64A12.47,12.47,0,0,1,1193-781.49Z" transform="translate(673.04 784.13)"/></g></g></svg>