<svg id="Layer_1" data-name="Layer 1" xmlns="http://www.w3.org/2000/svg" viewBox="0 0 1001.28 3494.04"><defs><style>.cls-1{fill:none;stroke:#62a795;stroke-miterlimit:10;stroke-width:7px;}</style></defs><path class="cls-1" d="M1177.54,2273c6.67-27.92,33.86-21.44,40.57-49.34s-20.58-34.41-13.91-62.33,33.86-21.45,40.56-49.35-20.58-34.42-13.91-62.33,33.87-21.45,40.56-49.34-20.57-34.43-13.91-62.34,33.86-21.44,40.55-49.34-20.57-34.42-13.91-62.34,33.87-21.44,40.56-49.34-20.58-34.42-13.91-62.33,33.86-21.45,40.55-49.34-20.57-34.42-13.9-62.34,33.86-21.45,40.55-49.34-20.57-34.42-13.9-62.34,33.86-21.43,40.56-49.33-20.57-34.42-13.91-62.33,33.86-21.45,40.56-49.34-20.57-34.43-13.9-62.35,33.86-21.44,40.56-49.33-20.57-34.42-13.91-62.34,33.87-21.44,40.56-49.33-20.58-34.43-13.9-62.34,33.86-21.45,40.55-49.35-20.57-34.41-13.91-62.33,33.87-21.45,40.56-49.35-20.58-34.41-13.91-62.33,33.87-21.45,40.56-49.34-20.57-34.42-13.9-62.34,33.86-21.45,40.56-49.34-20.57-34.42-13.91-62.34,33.87-21.44,40.56-49.34-20.57-34.43-13.9-62.35,33.86-21.44,40.55-49.34-20.57-34.42-13.9-62.34,33.86-21.45,40.56-49.35-20.58-34.41-13.91-62.33,33.86-21.44,40.56-49.34-20.57-34.43-13.91-62.35,33.86-21.44,40.56-49.34-20.57-34.42-13.91-62.34S1744.43,18,1751.14-9.93s-20.59-34.42-13.91-62.34,33.86-21.45,40.56-49.35-20.58-34.42-13.91-62.33,33.86-21.45,40.56-49.35-20.57-34.42-13.9-62.34,33.86-21.44,40.56-49.34-20.58-34.43-13.9-62.34,33.86-21.44,40.55-49.34-20.57-34.42-13.9-62.34,33.86-21.44,40.55-49.35-20.57-34.42-13.9-62.34,33.86-21.44,40.55-49.34-20.57-34.42-13.9-62.34,33.86-21.46,40.56-49.36-20.58-34.41-13.91-62.33,33.86-21.45,40.56-49.36-20.57-34.42-13.91-62.34,33.87-21.44,40.57-49.34-20.58-34.43-13.9-62.35,33.87-21.45,40.56-49.35" transform="translate(-1174.14 1127.62)"/><path class="cls-1" d="M1229,2303.85c6.67-27.91,33.86-21.44,40.56-49.34s-20.57-34.41-13.91-62.33,33.87-21.44,40.57-49.34-20.58-34.43-13.91-62.33,33.87-21.45,40.55-49.35-20.57-34.42-13.9-62.33,33.86-21.44,40.55-49.35-20.58-34.41-13.91-62.33,33.86-21.44,40.56-49.35-20.58-34.41-13.91-62.33,33.86-21.44,40.55-49.34-20.57-34.42-13.91-62.34,33.86-21.44,40.56-49.33-20.57-34.42-13.9-62.34,33.85-21.44,40.55-49.34-20.56-34.42-13.9-62.33,33.86-21.44,40.56-49.34-20.57-34.42-13.9-62.34,33.86-21.44,40.55-49.33-20.57-34.43-13.9-62.35,33.86-21.44,40.56-49.33-20.58-34.42-13.9-62.34,33.86-21.44,40.55-49.35-20.58-34.41-13.91-62.33,33.86-21.44,40.56-49.34-20.58-34.42-13.91-62.34,33.86-21.45,40.56-49.34-20.57-34.42-13.9-62.34,33.86-21.44,40.55-49.33-20.57-34.42-13.9-62.34,33.86-21.45,40.56-49.35-20.57-34.42-13.91-62.34,33.86-21.44,40.56-49.35-20.57-34.42-13.91-62.34,33.86-21.44,40.57-49.34-20.59-34.42-13.91-62.33,33.86-21.45,40.55-49.35-20.57-34.42-13.9-62.34,33.86-21.44,40.55-49.35S1755.35,98.2,1762,70.28s33.86-21.44,40.56-49.34-20.58-34.42-13.9-62.33,33.86-21.45,40.55-49.36-20.57-34.41-13.9-62.33,33.86-21.44,40.56-49.34-20.57-34.42-13.9-62.34,33.86-21.45,40.56-49.34-20.58-34.43-13.9-62.35,33.86-21.44,40.54-49.33-20.57-34.43-13.9-62.34,33.86-21.45,40.56-49.35-20.57-34.42-13.91-62.34,33.86-21.44,40.56-49.35-20.57-34.42-13.91-62.34,33.87-21.45,40.56-49.35-20.57-34.42-13.91-62.34,33.87-21.45,40.56-49.35-20.57-34.42-13.9-62.34,33.86-21.45,40.56-49.35-20.57-34.42-13.89-62.34,33.86-21.46,40.55-49.36" transform="translate(-1174.14 1127.62)"/><path class="cls-1" d="M1280.44,2334.73c6.66-27.92,33.86-21.44,40.56-49.34s-20.58-34.42-13.91-62.33,33.86-21.45,40.56-49.35-20.57-34.42-13.9-62.33,33.86-21.45,40.55-49.34-20.57-34.43-13.91-62.34,33.86-21.44,40.56-49.34-20.58-34.42-13.91-62.34,33.86-21.44,40.55-49.34-20.57-34.42-13.91-62.34,33.86-21.44,40.55-49.33-20.57-34.43-13.9-62.34,33.86-21.45,40.56-49.34-20.57-34.42-13.91-62.34,33.86-21.43,40.56-49.33-20.57-34.42-13.91-62.33,33.86-21.45,40.57-49.35-20.57-34.42-13.91-62.34,33.86-21.44,40.56-49.33-20.57-34.42-13.9-62.34,33.86-21.44,40.56-49.33-20.58-34.43-13.91-62.34,33.86-21.45,40.56-49.35-20.58-34.41-13.91-62.33,33.86-21.45,40.55-49.35-20.57-34.41-13.91-62.33,33.87-21.45,40.57-49.34-20.57-34.43-13.91-62.35,33.86-21.44,40.56-49.33-20.57-34.42-13.9-62.34,33.86-21.44,40.55-49.35-20.57-34.42-13.9-62.34,33.86-21.44,40.55-49.34-20.57-34.42-13.9-62.34,33.86-21.45,40.56-49.35-20.58-34.41-13.9-62.33,33.86-21.44,40.55-49.35-20.57-34.42-13.9-62.34,33.86-21.44,40.55-49.34-20.57-34.42-13.9-62.34,33.86-21.45,40.56-49.35-20.58-34.41-13.91-62.33S1874-32,1880.68-59.87s-20.57-34.42-13.91-62.34,33.86-21.44,40.57-49.34-20.57-34.42-13.91-62.34,33.86-21.44,40.57-49.34-20.58-34.43-13.91-62.34S1954-367,1960.64-394.91s-20.57-34.42-13.9-62.34,33.86-21.44,40.55-49.35-20.57-34.42-13.9-62.34,33.86-21.44,40.55-49.34-20.57-34.43-13.9-62.35,33.87-21.45,40.56-49.35-20.58-34.41-13.91-62.33,33.87-21.45,40.56-49.36-20.57-34.42-13.9-62.34,33.86-21.44,40.56-49.34-20.58-34.43-13.9-62.35,33.87-21.45,40.56-49.36" transform="translate(-1174.14 1127.62)"/><path class="cls-1" d="M1331.88,2365.6c6.67-27.92,33.86-21.44,40.57-49.34s-20.58-34.41-13.91-62.33,33.86-21.44,40.56-49.34-20.58-34.43-13.91-62.33,33.87-21.46,40.56-49.35-20.57-34.42-13.91-62.33,33.86-21.45,40.55-49.35-20.57-34.41-13.91-62.33,33.87-21.44,40.56-49.35-20.58-34.41-13.91-62.33,33.86-21.44,40.55-49.34-20.57-34.42-13.9-62.34,33.86-21.44,40.55-49.33-20.57-34.42-13.9-62.34,33.86-21.44,40.56-49.34-20.57-34.42-13.91-62.33,33.86-21.44,40.56-49.34-20.57-34.42-13.9-62.34,33.86-21.44,40.56-49.33-20.57-34.43-13.91-62.35,33.87-21.44,40.56-49.33-20.58-34.43-13.9-62.34,33.86-21.44,40.55-49.35-20.57-34.41-13.91-62.33,33.87-21.44,40.56-49.35-20.58-34.41-13.91-62.33,33.87-21.45,40.56-49.34-20.57-34.42-13.9-62.34,33.86-21.44,40.56-49.33-20.57-34.43-13.9-62.34,33.86-21.45,40.55-49.35-20.57-34.42-13.9-62.34,33.86-21.44,40.55-49.35S1778.29,495,1785,467.08s33.86-21.44,40.56-49.34-20.58-34.42-13.91-62.33,33.86-21.45,40.56-49.35-20.57-34.42-13.91-62.34,33.86-21.44,40.56-49.35S1858.25,160,1864.91,132s33.87-21.44,40.57-49.34-20.59-34.42-13.91-62.33S1925.43-1.09,1932.13-29s-20.58-34.41-13.91-62.33,33.86-21.44,40.56-49.34-20.57-34.42-13.9-62.34,33.86-21.45,40.56-49.35-20.58-34.42-13.9-62.34,33.86-21.44,40.55-49.33-20.57-34.43-13.9-62.35,33.86-21.44,40.55-49.34-20.57-34.42-13.9-62.34,33.86-21.45,40.55-49.35-20.57-34.42-13.9-62.34,33.86-21.45,40.56-49.36-20.58-34.41-13.91-62.33,33.86-21.45,40.56-49.35-20.57-34.43-13.91-62.34,33.87-21.45,40.57-49.35-20.58-34.42-13.9-62.35,33.87-21.45,40.56-49.35" transform="translate(-1174.14 1127.62)"/></svg>